# This file uses centimeters as units for non-parametric coordinates.

mtllib Base ID.mtl
g default
v -0.171396 1.564549 -0.335477
v 0.057513 1.183639 -0.335477
v -0.147658 1.577170 -0.335477
v 0.081251 1.196261 -0.335477
v -0.147658 1.577170 -1.051408
v 0.081251 1.196261 -1.051408
v -0.171396 1.564549 -1.051408
v 0.057513 1.183639 -1.051408
v 0.109514 1.298045 -0.335477
v -0.075502 1.199675 -0.335477
v 0.120024 1.281281 -0.335477
v -0.064992 1.182910 -0.335477
v 0.120024 1.281281 -1.051408
v -0.064992 1.182910 -1.051408
v 0.109514 1.298045 -1.051408
v -0.075502 1.199675 -1.051408
vt 0.375000 0.000000
vt 0.625000 0.000000
vt 0.375000 0.250000
vt 0.625000 0.250000
vt 0.375000 0.500000
vt 0.625000 0.500000
vt 0.375000 0.750000
vt 0.625000 0.750000
vt 0.375000 1.000000
vt 0.625000 1.000000
vt 0.875000 0.000000
vt 0.875000 0.250000
vt 0.125000 0.000000
vt 0.125000 0.250000
vt 0.375000 0.000000
vt 0.625000 0.000000
vt 0.625000 0.250000
vt 0.375000 0.250000
vt 0.625000 0.500000
vt 0.375000 0.500000
vt 0.625000 0.750000
vt 0.375000 0.750000
vt 0.625000 1.000000
vt 0.375000 1.000000
vt 0.875000 0.000000
vt 0.875000 0.250000
vt 0.125000 0.000000
vt 0.125000 0.250000
vn 0.000000 0.000000 1.000000
vn 0.000000 0.000000 1.000000
vn 0.000000 0.000000 1.000000
vn 0.000000 0.000000 1.000000
vn 0.857132 0.515097 0.000000
vn 0.857132 0.515097 0.000000
vn 0.857132 0.515097 0.000000
vn 0.857132 0.515097 0.000000
vn 0.000001 0.000000 -1.000000
vn 0.000001 0.000000 -1.000000
vn 0.000001 0.000000 -1.000000
vn 0.000001 0.000000 -1.000000
vn -0.857132 -0.515097 0.000000
vn -0.857132 -0.515097 0.000000
vn -0.857132 -0.515097 0.000000
vn -0.857132 -0.515097 0.000000
vn 0.469457 -0.882956 0.000000
vn 0.469457 -0.882956 0.000000
vn 0.469457 -0.882956 0.000000
vn 0.469457 -0.882956 0.000000
vn -0.469457 0.882956 0.000000
vn -0.469457 0.882956 0.000000
vn -0.469457 0.882956 0.000000
vn -0.469457 0.882956 0.000000
vn 0.000000 0.000000 1.000000
vn 0.000000 0.000000 1.000000
vn 0.000000 0.000000 1.000000
vn 0.000000 0.000000 1.000000
vn 0.469456 -0.882956 0.000000
vn 0.469456 -0.882956 0.000000
vn 0.469456 -0.882956 0.000000
vn 0.469456 -0.882956 0.000000
vn 0.000000 0.000000 -1.000000
vn 0.000000 0.000000 -1.000000
vn 0.000000 0.000000 -1.000000
vn 0.000000 0.000000 -1.000000
vn -0.469456 0.882956 0.000000
vn -0.469456 0.882956 0.000000
vn -0.469456 0.882956 0.000000
vn -0.469456 0.882956 0.000000
vn -0.847258 -0.531182 0.000000
vn -0.847258 -0.531182 0.000000
vn -0.847258 -0.531182 0.000000
vn -0.847258 -0.531182 0.000000
vn 0.847258 0.531182 0.000000
vn 0.847258 0.531182 0.000000
vn 0.847258 0.531182 0.000000
vn 0.847258 0.531182 0.000000
s off
g Lector_de_ID Original_
usemtl initialShadingGroup
f 1/1/1 2/2/2 4/4/3 3/3/4
f 3/3/5 4/4/6 6/6/7 5/5/8
f 5/5/9 6/6/10 8/8/11 7/7/12
f 7/7/13 8/8/14 2/10/15 1/9/16
f 2/2/17 8/11/18 6/12/19 4/4/20
f 7/13/21 1/1/22 3/3/23 5/14/24
f 9/15/25 10/16/26 12/17/27 11/18/28
f 11/18/29 12/17/30 14/19/31 13/20/32
f 13/20/33 14/19/34 16/21/35 15/22/36
f 15/22/37 16/21/38 10/23/39 9/24/40
f 10/16/41 16/25/42 14/26/43 12/17/44
f 15/27/45 9/15/46 11/18/47 13/28/48
