# This file uses centimeters as units for non-parametric coordinates.

mtllib Base Perilla.mtl
g default
v 0.607700 1.188796 -0.213809
v 0.724359 1.188796 -0.108819
v 0.641869 1.188796 -0.139570
v 0.646397 1.255462 -0.245682
v 0.678186 1.255462 -0.176614
v 0.754931 1.255462 -0.148005
v 1.718852 1.188796 -0.213809
v 1.684683 1.188796 -0.139570
v 1.602193 1.188796 -0.108819
v 1.680155 1.255462 -0.245682
v 1.571621 1.255462 -0.148005
v 1.648366 1.255462 -0.176614
v 0.678186 1.255462 -1.166210
v 0.646397 1.255462 -1.097142
v 0.754931 1.255462 -1.194819
v 0.607700 1.188796 -1.129015
v 0.641869 1.188796 -1.203254
v 0.724359 1.188796 -1.234005
v 1.648366 1.255462 -1.166210
v 1.571621 1.255462 -1.194819
v 1.680155 1.255462 -1.097142
v 1.718852 1.188796 -1.129015
v 1.602193 1.188796 -1.234005
v 1.684683 1.188796 -1.203254
vt 0.663752 0.751746
vt 0.661052 0.656445
vt 0.738569 0.656445
vt 0.735869 0.751746
vt 0.654764 0.656445
vt 0.657902 0.751746
vt 0.741719 0.751746
vt 0.744857 0.656445
vt 0.663375 0.950112
vt 0.660675 0.854811
vt 0.738192 0.854811
vt 0.735492 0.950112
vt 0.657525 0.950112
vt 0.654387 0.854811
vt 0.744479 0.854811
vt 0.741342 0.950112
vt 0.526940 0.030871
vt 0.540625 0.068046
vt 0.540625 0.463655
vt 0.526940 0.500831
vt 0.493900 0.516230
vt 0.086593 0.516230
vt 0.053553 0.500831
vt 0.039868 0.463655
vt 0.039868 0.068046
vt 0.053553 0.030871
vt 0.086593 0.015472
vt 0.493900 0.015472
vt 0.663842 0.850784
vt 0.661220 0.755482
vt 0.736510 0.755482
vt 0.733888 0.850784
vt 0.654145 0.755482
vt 0.657260 0.850784
vt 0.743585 0.755482
vt 0.740471 0.850784
vt 0.661169 0.652974
vt 0.663792 0.557673
vt 0.733837 0.557673
vt 0.736459 0.652974
vt 0.657209 0.557673
vt 0.654094 0.652974
vt 0.740420 0.557673
vt 0.743535 0.652974
vn -0.020102 0.513468 0.857873
vn -0.038546 0.519437 0.853639
vn 0.038546 0.519437 0.853639
vn 0.020102 0.513468 0.857873
vn -0.038545 0.519437 -0.853639
vn -0.020102 0.513468 -0.857873
vn 0.020102 0.513468 -0.857873
vn 0.038545 0.519437 -0.853639
vn 0.860072 0.509703 0.021899
vn 0.855308 0.516434 0.041763
vn 0.855308 0.516435 -0.041763
vn 0.860072 0.509703 -0.021899
vn -0.860071 0.509704 -0.021899
vn -0.855307 0.516436 -0.041763
vn -0.855307 0.516436 0.041763
vn -0.860071 0.509704 0.021899
vn -0.734690 0.588123 0.338145
vn -0.734690 0.588123 0.338145
vn -0.284684 0.579434 0.763683
vn -0.284684 0.579434 0.763683
vn 0.284684 0.579434 0.763682
vn 0.284684 0.579434 0.763682
vn 0.734691 0.588121 0.338145
vn 0.734691 0.588121 0.338145
vn -0.734691 0.588123 -0.338144
vn -0.734691 0.588123 -0.338144
vn -0.284683 0.579434 -0.763683
vn -0.284683 0.579434 -0.763683
vn 0.284683 0.579433 -0.763684
vn 0.284683 0.579433 -0.763684
vn 0.734691 0.588122 -0.338144
vn 0.734691 0.588122 -0.338144
vn 0.000000 1.000000 -0.000000
vn 0.000000 1.000000 -0.000000
vn 0.000000 1.000000 -0.000000
vn 0.000000 1.000000 -0.000000
vn 0.000000 1.000000 -0.000000
vn 0.000000 1.000000 -0.000000
vn 0.000000 1.000000 -0.000000
vn 0.000000 1.000000 -0.000000
vn 0.000000 1.000000 -0.000000
vn 0.000000 1.000000 -0.000000
vn 0.000000 1.000000 -0.000000
vn 0.000000 1.000000 -0.000000
s 1
g pCube3 Perilla Original_
usemtl initialShadingGroup
f 6/29/1 2/30/2 9/31/3 11/32/4
s 2
f 18/37/5 15/38/6 20/39/7 23/40/8
s 3
f 10/1/9 7/2/10 22/3/11 21/4/12
s 4
f 14/9/13 16/10/14 1/11/15 4/12/16
f 1/11/15 3/15/17 5/16/18 4/12/16
s 1
f 3/33/19 2/30/2 6/29/1 5/34/20
f 9/31/3 8/35/21 12/36/22 11/32/4
s 3
f 8/5/23 7/2/10 10/1/9 12/6/24
s 4
f 14/9/13 13/13/25 17/14/26 16/10/14
s 2
f 13/41/27 15/38/6 18/37/5 17/42/28
f 20/39/7 19/43/29 24/44/30 23/40/8
s 3
f 19/7/31 21/4/12 22/3/11 24/8/32
s off
f 19/17/33 20/18/34 15/19/35 13/20/36 14/21/37 4/22/38 5/23/39 6/24/40 11/25/41 12/26/42 10/27/43 21/28/44
