# This file uses centimeters as units for non-parametric coordinates.

mtllib Base Slider.mtl
g default
v 0.617797 1.188796 1.546207
v 1.708040 1.188796 1.546207
v 0.617797 1.255462 1.546207
v 1.708040 1.255462 1.546207
v 0.617797 1.255462 0.067265
v 1.708040 1.255462 0.067265
v 0.617797 1.188796 0.067265
v 1.708040 1.188796 0.067265
vt 0.024105 0.983113
vt 0.024105 0.535677
vt 0.631063 0.535677
vt 0.631063 0.983113
vn 0.000000 -0.000002 1.000000
vn 0.000000 -0.000002 1.000000
vn 0.000000 -0.000002 1.000000
vn 0.000000 -0.000002 1.000000
vn 0.000000 1.000000 0.000000
vn 0.000000 1.000000 0.000000
vn 0.000000 1.000000 0.000000
vn 0.000000 1.000000 0.000000
vn 0.000000 0.000000 -1.000000
vn 0.000000 0.000000 -1.000000
vn 0.000000 0.000000 -1.000000
vn 0.000000 0.000000 -1.000000
vn 0.000000 -1.000000 0.000000
vn 0.000000 -1.000000 0.000000
vn 0.000000 -1.000000 0.000000
vn 0.000000 -1.000000 0.000000
vn 1.000000 -0.000000 0.000000
vn 1.000000 -0.000000 0.000000
vn 1.000000 -0.000000 0.000000
vn 1.000000 -0.000000 0.000000
vn -1.000000 0.000001 0.000000
vn -1.000000 0.000001 0.000000
vn -1.000000 0.000001 0.000000
vn -1.000000 0.000001 0.000000
s off
g Base Slider Original_
usemtl initialShadingGroup
f 1//1 2//2 4//3 3//4
f 3/1/5 4/2/6 6/3/7 5/4/8
f 5//9 6//10 8//11 7//12
f 7//13 8//14 2//15 1//16
f 2//17 8//18 6//19 4//20
f 7//21 1//22 3//23 5//24
