# This file uses centimeters as units for non-parametric coordinates.

mtllib BotonInicio.mtl
g default
v 0.753844 1.314233 2.621349
v 1.227351 1.314233 2.621349
v 0.753844 1.244454 2.621349
v 1.227351 1.244454 2.621349
v 0.990598 1.314233 2.621349
v 0.990598 1.244454 2.621349
v 0.990598 1.244454 2.267401
v 0.990598 1.314233 2.267401
v 1.382877 1.184745 2.381079
v 1.323628 1.184745 2.264795
v 1.231344 1.184745 2.172511
v 1.115060 1.184745 2.113261
v 0.986158 1.184745 2.092845
v 0.857256 1.184745 2.113261
v 0.740972 1.184745 2.172511
v 0.648689 1.184745 2.264795
v 0.589439 1.184745 2.381079
v 0.569023 1.184745 2.509981
v 0.589439 1.184745 2.638882
v 0.648689 1.184745 2.755167
v 0.740972 1.184745 2.847450
v 0.857256 1.184745 2.906700
v 0.986158 1.184745 2.927116
v 1.115060 1.184745 2.906700
v 1.231344 1.184745 2.847450
v 1.323627 1.184745 2.755166
v 1.382877 1.184745 2.638882
v 1.403293 1.184745 2.509981
v 1.382877 1.285051 2.381079
v 1.323628 1.285051 2.264795
v 1.231344 1.285051 2.172511
v 1.115060 1.285051 2.113261
v 0.986158 1.285051 2.092845
v 0.857256 1.285051 2.113261
v 0.740972 1.285051 2.172511
v 0.648689 1.285051 2.264795
v 0.589439 1.285051 2.381079
v 0.569023 1.285051 2.509981
v 0.589439 1.285051 2.638882
v 0.648689 1.285051 2.755167
v 0.740972 1.285051 2.847450
v 0.857256 1.285051 2.906700
v 0.986158 1.285051 2.927116
v 1.115060 1.285051 2.906700
v 1.231344 1.285051 2.847450
v 1.323627 1.285051 2.755166
v 1.382877 1.285051 2.638882
v 1.403293 1.285051 2.509981
v 0.986158 1.184745 2.509981
v 0.986158 1.285051 2.509981
vt 0.375000 0.000000
vt 0.375000 0.250000
vt 0.500000 0.250000
vt 0.500000 0.000000
vt 0.500000 0.750000
vt 0.375000 1.000000
vt 0.500000 1.000000
vt 0.500000 0.500000
vt 0.625000 0.250000
vt 0.625000 0.000000
vt 0.625000 1.000000
vt 0.375000 0.312500
vt 0.387500 0.312500
vt 0.387500 0.687500
vt 0.375000 0.687500
vt 0.400000 0.312500
vt 0.400000 0.687500
vt 0.412500 0.312500
vt 0.412500 0.687500
vt 0.425000 0.312500
vt 0.425000 0.687500
vt 0.437500 0.312500
vt 0.437500 0.687500
vt 0.450000 0.312500
vt 0.450000 0.687500
vt 0.462500 0.312500
vt 0.462500 0.687500
vt 0.475000 0.312500
vt 0.475000 0.687500
vt 0.487500 0.312500
vt 0.487500 0.687500
vt 0.500000 0.312500
vt 0.500000 0.687500
vt 0.512500 0.312500
vt 0.512500 0.687500
vt 0.525000 0.312500
vt 0.525000 0.687500
vt 0.537500 0.312500
vt 0.537500 0.687500
vt 0.550000 0.312500
vt 0.550000 0.687500
vt 0.562500 0.312500
vt 0.562500 0.687500
vt 0.575000 0.312500
vt 0.575000 0.687500
vt 0.587500 0.312500
vt 0.587500 0.687500
vt 0.600000 0.312500
vt 0.600000 0.687500
vt 0.612500 0.312500
vt 0.612500 0.687500
vt 0.625000 0.312500
vt 0.625000 0.687500
vt 0.626409 0.064408
vt 0.648603 0.107966
vt 0.500000 0.156250
vt 0.591842 0.029841
vt 0.548284 0.007647
vt 0.500000 -0.000000
vt 0.451716 0.007647
vt 0.408159 0.029841
vt 0.373591 0.064409
vt 0.351397 0.107966
vt 0.343750 0.156250
vt 0.351397 0.204534
vt 0.373591 0.248091
vt 0.408159 0.282659
vt 0.451716 0.304853
vt 0.500000 0.312500
vt 0.548284 0.304853
vt 0.591841 0.282659
vt 0.626409 0.248091
vt 0.648603 0.204534
vt 0.656250 0.156250
vt 0.648603 0.892034
vt 0.626409 0.935591
vt 0.500000 0.843750
vt 0.591841 0.970159
vt 0.548284 0.992353
vt 0.500000 1.000000
vt 0.451716 0.992353
vt 0.408159 0.970159
vt 0.373591 0.935591
vt 0.351397 0.892034
vt 0.343750 0.843750
vt 0.351397 0.795466
vt 0.373591 0.751909
vt 0.408159 0.717341
vt 0.451716 0.695147
vt 0.500000 0.687500
vt 0.548284 0.695147
vt 0.591842 0.717341
vt 0.626409 0.751908
vt 0.648603 0.795466
vt 0.656250 0.843750
vn 0.000000 0.000000 1.000000
vn 0.000000 0.000000 1.000000
vn 0.000000 0.000000 1.000000
vn 0.000000 0.000000 1.000000
vn 0.000000 1.000000 0.000000
vn 0.000000 1.000000 0.000000
vn 0.000000 1.000000 0.000000
vn 0.000000 0.000000 -1.000000
vn 0.000000 0.000000 -1.000000
vn -0.831194 0.000000 -0.555982
vn -0.831194 0.000000 -0.555982
vn 0.000000 0.000000 1.000000
vn 0.000000 0.000000 1.000000
vn 0.831194 0.000000 -0.555982
vn 0.831194 0.000000 -0.555982
vn 0.000000 1.000000 0.000000
vn 0.951057 0.000000 -0.309016
vn 0.809017 0.000000 -0.587785
vn 0.809017 0.000000 -0.587785
vn 0.951057 0.000000 -0.309016
vn 0.587785 0.000000 -0.809017
vn 0.587785 0.000000 -0.809017
vn 0.309016 0.000000 -0.951057
vn 0.309016 0.000000 -0.951057
vn 0.000000 0.000000 -1.000000
vn 0.000000 0.000000 -1.000000
vn -0.309016 0.000000 -0.951057
vn -0.309016 0.000000 -0.951057
vn -0.587786 0.000000 -0.809017
vn -0.587786 0.000000 -0.809017
vn -0.809017 0.000000 -0.587785
vn -0.809017 0.000000 -0.587785
vn -0.951057 0.000000 -0.309017
vn -0.951057 0.000000 -0.309017
vn -1.000000 0.000000 0.000000
vn -1.000000 0.000000 0.000000
vn -0.951057 0.000000 0.309017
vn -0.951057 0.000000 0.309017
vn -0.809017 0.000000 0.587785
vn -0.809017 0.000000 0.587785
vn -0.587785 0.000000 0.809017
vn -0.587785 0.000000 0.809017
vn -0.309018 0.000000 0.951056
vn -0.309018 0.000000 0.951056
vn 0.000000 0.000000 1.000000
vn 0.000000 0.000000 1.000000
vn 0.309017 0.000000 0.951056
vn 0.309017 0.000000 0.951056
vn 0.587786 0.000000 0.809017
vn 0.587786 0.000000 0.809017
vn 0.809017 0.000000 0.587785
vn 0.809017 0.000000 0.587785
vn 0.951056 0.000000 0.309017
vn 0.951056 0.000000 0.309017
vn 1.000000 0.000000 0.000001
vn 1.000000 0.000000 0.000001
vn 0.000000 -1.000000 0.000001
vn 0.000000 -1.000000 0.000000
vn 0.000000 -1.000000 -0.000000
vn 0.000000 -1.000000 0.000000
vn 0.000000 -1.000000 -0.000000
vn 0.000000 -1.000000 0.000000
vn 0.000000 -1.000000 -0.000001
vn 0.000000 -1.000000 -0.000001
vn 0.000000 -1.000000 0.000000
vn 0.000000 -1.000000 0.000000
vn 0.000000 -1.000000 0.000000
vn 0.000000 -1.000000 0.000000
vn 0.000000 -1.000000 0.000000
vn 0.000000 -1.000000 0.000000
vn 0.000000 -1.000000 0.000000
vn 0.000000 -1.000000 0.000000
vn 0.000000 -1.000000 0.000000
vn 0.000000 -1.000000 0.000000
vn 0.000000 -1.000000 0.000000
vn 0.000000 -1.000000 0.000000
vn 0.000000 -1.000000 0.000000
vn 0.000000 1.000000 0.000001
vn 0.000000 1.000000 0.000000
vn 0.000000 1.000000 0.000000
vn 0.000000 1.000000 -0.000001
vn 0.000000 1.000000 -0.000001
vn 0.000000 1.000000 0.000000
vn 0.000000 1.000000 -0.000000
vn 0.000000 1.000000 -0.000000
vn 0.000000 1.000000 0.000000
vn 0.000000 1.000000 0.000000
vn 0.000000 1.000000 0.000000
vn 0.000000 1.000000 0.000000
vn 0.000000 1.000000 0.000000
vn 0.000000 1.000000 0.000000
vn 0.000000 1.000000 0.000000
vn 0.000000 1.000000 0.000000
vn 0.000000 1.000000 0.000000
vn 0.000000 1.000000 0.000000
vn 0.000000 1.000000 -0.000001
vn 0.000000 1.000000 -0.000001
vn 0.000000 1.000000 0.000001
s 1
g Boton Bton_iniccio
usemtl lambert3SG
f 1/1/1 3/2/2 6/3/3 5/4/4
s 2
f 8/5/5 1/6/6 5/7/7
s 3
f 8/5/8 7/8/9 3/2/10 1/1/11
s 1
f 6/3/3 4/9/12 2/10/13 5/4/4
s 3
f 2/10/14 4/9/15 7/8/9 8/5/8
s 2
f 5/7/7 2/11/16 8/5/5
s 4
f 9/12/17 10/13/18 30/14/19 29/15/20
f 10/13/18 11/16/21 31/17/22 30/14/19
f 11/16/21 12/18/23 32/19/24 31/17/22
f 12/18/23 13/20/25 33/21/26 32/19/24
f 13/20/25 14/22/27 34/23/28 33/21/26
f 14/22/27 15/24/29 35/25/30 34/23/28
f 15/24/29 16/26/31 36/27/32 35/25/30
f 16/26/31 17/28/33 37/29/34 36/27/32
f 17/28/33 18/30/35 38/31/36 37/29/34
f 18/30/35 19/32/37 39/33/38 38/31/36
f 19/32/37 20/34/39 40/35/40 39/33/38
f 20/34/39 21/36/41 41/37/42 40/35/40
f 21/36/41 22/38/43 42/39/44 41/37/42
f 22/38/43 23/40/45 43/41/46 42/39/44
f 23/40/45 24/42/47 44/43/48 43/41/46
f 24/42/47 25/44/49 45/45/50 44/43/48
f 25/44/49 26/46/51 46/47/52 45/45/50
f 26/46/51 27/48/53 47/49/54 46/47/52
f 27/48/53 28/50/55 48/51/56 47/49/54
f 28/50/55 9/52/17 29/53/20 48/51/56
s 5
f 10/54/57 9/55/58 49/56/59
f 11/57/60 10/54/57 49/56/59
f 12/58/61 11/57/60 49/56/59
f 13/59/62 12/58/61 49/56/59
f 14/60/63 13/59/62 49/56/59
f 15/61/64 14/60/63 49/56/59
f 16/62/65 15/61/64 49/56/59
f 17/63/66 16/62/65 49/56/59
f 18/64/67 17/63/66 49/56/59
f 19/65/68 18/64/67 49/56/59
f 20/66/69 19/65/68 49/56/59
f 21/67/70 20/66/69 49/56/59
f 22/68/71 21/67/70 49/56/59
f 23/69/72 22/68/71 49/56/59
f 24/70/73 23/69/72 49/56/59
f 25/71/74 24/70/73 49/56/59
f 26/72/75 25/71/74 49/56/59
f 27/73/76 26/72/75 49/56/59
f 28/74/77 27/73/76 49/56/59
f 9/55/58 28/74/77 49/56/59
s 6
f 29/75/78 30/76/79 50/77/80
f 30/76/79 31/78/81 50/77/80
f 31/78/81 32/79/82 50/77/80
f 32/79/82 33/80/83 50/77/80
f 33/80/83 34/81/84 50/77/80
f 34/81/84 35/82/85 50/77/80
f 35/82/85 36/83/86 50/77/80
f 36/83/86 37/84/87 50/77/80
f 37/84/87 38/85/88 50/77/80
f 38/85/88 39/86/89 50/77/80
f 39/86/89 40/87/90 50/77/80
f 40/87/90 41/88/91 50/77/80
f 41/88/91 42/89/92 50/77/80
f 42/89/92 43/90/93 50/77/80
f 43/90/93 44/91/94 50/77/80
f 44/91/94 45/92/95 50/77/80
f 45/92/95 46/93/96 50/77/80
f 46/93/96 47/94/97 50/77/80
f 47/94/97 48/95/98 50/77/80
f 48/95/98 29/75/78 50/77/80
