# This file uses centimeters as units for non-parametric coordinates.

mtllib Escritorio.mtl
g default
v -1.647084 1.472674 4.945421
v 2.445806 1.056471 4.945422
v -1.456158 1.472674 4.945421
v 2.445806 1.189394 4.945422
v -1.456158 1.472674 -2.846828
v 2.445806 1.189394 -2.846829
v -1.647084 1.472674 -2.846828
v 2.445806 1.056471 -2.846829
v 0.772395 1.056471 4.945422
v 0.772395 1.189394 4.945422
v 0.772395 1.189394 -2.846829
v 0.772395 1.056471 -2.846829
v -0.697219 1.056471 4.945422
v -0.697219 1.189394 4.945422
v -0.697219 1.189394 -2.846829
v -0.697219 1.056471 -2.846829
v -1.215983 1.115942 4.945422
v -1.161798 1.243407 4.945422
v -1.161798 1.243407 -2.846829
v -1.185535 1.115942 -2.846829
v -1.647084 9.950914 -2.846828
v -1.647084 9.950914 4.945421
v -1.456159 9.950914 4.945421
v -1.456159 9.950914 -2.846828
v -1.456158 1.939206 1.962571
v -1.456158 1.939206 -2.051320
v -1.456158 4.548016 -2.051320
v -1.456158 4.548016 1.962571
v -1.647084 1.939206 1.962571
v -1.647084 1.939206 -2.051320
v -1.647084 4.548016 -2.051320
v -1.647084 4.548016 1.962571
v -1.647084 1.472674 10.983922
v -1.456158 1.472674 10.983922
v -1.215983 1.115942 10.983924
v -1.161798 1.243407 10.983924
v 0.772395 1.056471 10.983924
v 0.772395 1.189394 10.983924
v 2.445806 1.056471 10.983924
v 2.445806 1.189394 10.983924
v -0.697219 1.056471 10.983924
v -0.697219 1.189394 10.983924
v -1.456159 9.950914 10.983922
v -1.647084 9.950914 10.983922
v -1.456158 1.472674 -8.885328
v -1.647084 1.472674 -8.885328
v -1.161798 1.243407 -8.885330
v -1.185535 1.115942 -8.885330
v 0.772395 1.189394 -8.885330
v 0.772395 1.056471 -8.885330
v 2.445806 1.189394 -8.885330
v 2.445806 1.056471 -8.885330
v -0.697219 1.189394 -8.885330
v -0.697219 1.056471 -8.885330
v -1.647084 9.950914 -8.885328
v -1.456159 9.950914 -8.885328
v -0.697219 -2.211977 -2.846829
v -0.697219 -2.211977 4.945422
v 0.772395 -2.211977 -2.846829
v 0.772395 -2.211977 4.945422
v 0.772395 -2.211977 10.983924
v -0.697219 -2.211977 10.983924
v -0.697219 -2.211977 -8.885330
v 0.772395 -2.211977 -8.885330
vt 0.309741 0.602949
vt 0.690259 0.602949
vt 0.651412 0.624221
vt 0.455402 0.624221
vt 0.690259 0.989515
vt 0.100119 0.367517
vt 0.058426 0.367517
vt 0.058426 0.295604
vt 0.100119 0.295604
vt 0.045582 0.367517
vt 0.045582 0.295604
vt 0.058426 0.278663
vt 0.100119 0.278663
vt 0.112963 0.295604
vt 0.112963 0.367517
vt 0.045582 0.278663
vt 0.112963 0.278663
vt 0.317926 0.219361
vt 0.278970 0.219361
vt 0.278970 0.114813
vt 0.317926 0.114813
vt 0.266969 0.219361
vt 0.266969 0.114813
vt 0.278970 0.097384
vt 0.317926 0.097384
vt 0.329927 0.114813
vt 0.329927 0.219361
vt 0.266969 0.097384
vt 0.329927 0.097384
vt 0.266969 0.251017
vt 0.266969 0.226817
vt 0.291169 0.226817
vt 0.291169 0.251017
vt 0.266969 0.219361
vt 0.291169 0.219361
vt 0.291169 0.258472
vt 0.266969 0.258472
vt 0.103308 0.244108
vt 0.103308 0.131938
vt 0.155355 0.131938
vt 0.155355 0.244108
vt 0.045582 0.244108
vt 0.045582 0.131938
vt 0.103308 0.097384
vt 0.155355 0.097384
vt 0.155355 0.278663
vt 0.103308 0.278663
vt 0.045582 0.097384
vt 0.045582 0.278663
vt 0.214001 0.244108
vt 0.214001 0.131938
vt 0.266049 0.131938
vt 0.266049 0.244108
vt 0.156275 0.244108
vt 0.156275 0.131938
vt 0.214001 0.097384
vt 0.266049 0.097384
vt 0.266049 0.278663
vt 0.214001 0.278663
vt 0.156275 0.097384
vt 0.156275 0.278663
vt 0.292692 0.265233
vt 0.291712 0.265233
vt 0.293924 0.225916
vt 0.294202 0.239965
vt 0.296585 0.219361
vt 0.296585 0.234012
vt 0.304125 0.219361
vt 0.304125 0.234012
vt 0.310923 0.219361
vt 0.310923 0.234012
vt 0.296921 0.234012
vt 0.297901 0.234012
vt 0.299411 0.259280
vt 0.299289 0.273329
vt 0.301794 0.265233
vt 0.301794 0.279884
vt 0.309334 0.265233
vt 0.309334 0.279884
vt 0.316132 0.265233
vt 0.316132 0.279884
vt 0.651412 0.743170
vt 0.309741 0.989515
vt 0.455402 0.743170
vt 0.014863 0.989515
vt 0.014863 0.602949
vt 0.985137 0.602949
vt 0.985137 0.989515
vt 0.214001 0.097384
vt 0.156275 0.097384
vt 0.982713 0.074775
vt 0.037612 0.074775
vt 0.230160 0.062323
vt 0.868550 0.062324
vt 0.982713 0.084795
vt 0.037612 0.084795
vt 0.037612 0.042248
vt 0.230160 0.045568
vt 0.982713 0.042248
vt 0.868550 0.045568
vt 0.037612 0.032227
vt 0.982713 0.032227
vt 0.940166 0.108645
vt 0.972693 0.108645
vt 0.972693 0.110819
vt 0.940166 0.110819
vt 0.982713 0.108645
vt 0.982713 0.110819
vt 0.930146 0.110819
vt 0.930146 0.108645
vt 0.982713 0.119310
vt 0.965958 0.119310
vt 0.965958 0.117136
vt 0.982713 0.117136
vt 0.982713 0.127801
vt 0.965958 0.127801
vt 0.965958 0.125626
vt 0.982713 0.125626
vt 0.982713 0.015076
vt 0.982713 0.017251
vt 0.037612 0.017251
vt 0.037612 0.015076
vt 0.037612 0.025911
vt 0.037612 0.023737
vt 0.982713 0.023737
vt 0.982713 0.025911
vt 0.982713 0.093838
vt 0.344323 0.093838
vt 0.344323 0.091663
vt 0.982713 0.091663
vt 0.982713 0.102329
vt 0.344323 0.102329
vt 0.344323 0.100154
vt 0.982713 0.100154
vt 0.156275 0.244108
vt 0.156275 0.131938
vt 0.214001 0.131938
vt 0.214001 0.244108
vt 0.214001 0.278663
vt 0.156275 0.278663
vn -0.000004 0.000004 1.000000
vn -0.000004 0.000004 1.000000
vn -0.000002 0.000002 1.000000
vn -0.000002 0.000002 1.000000
vn 0.614475 0.788936 -0.000000
vn 0.614475 0.788936 -0.000000
vn 0.349692 0.936865 -0.000000
vn 0.349692 0.936865 -0.000000
vn -0.000004 0.000004 -1.000000
vn -0.000004 0.000004 -1.000000
vn -0.000002 0.000002 -1.000000
vn -0.000001 0.000001 -1.000000
vn -0.624345 -0.781148 -0.001220
vn -0.624345 -0.781148 -0.001220
vn -0.400756 -0.916185 -0.000783
vn -0.401907 -0.915680 -0.000785
vn 1.000000 0.000000 0.000000
vn 1.000000 0.000000 0.000000
vn 1.000000 0.000000 0.000000
vn 1.000000 0.000000 0.000000
vn 0.000000 1.000000 0.000000
vn 0.000000 1.000000 0.000000
vn 0.000000 1.000000 0.000000
vn 0.000000 1.000000 0.000000
vn 0.000000 0.000000 1.000000
vn 0.000000 0.000000 1.000000
vn 0.000000 0.000000 1.000000
vn 0.000000 0.000000 1.000000
vn 0.000000 1.000000 0.000000
vn 0.000000 1.000000 0.000000
vn 0.000000 1.000000 0.000000
vn 0.000000 1.000000 0.000000
vn 0.000000 0.000000 -1.000000
vn 0.000000 0.000000 -1.000000
vn 0.000000 0.000000 -1.000000
vn 0.000000 0.000000 -1.000000
vn 0.000000 -1.000000 0.000000
vn 0.000000 -1.000000 0.000000
vn 0.000000 -1.000000 0.000000
vn 0.000000 -1.000000 0.000000
vn 0.000000 0.000000 1.000000
vn 0.000000 0.000000 1.000000
vn 0.027914 0.999610 0.000000
vn 0.027914 0.999610 0.000000
vn 0.000000 0.000000 -1.000000
vn 0.000000 0.000000 -1.000000
vn 0.000000 -1.000000 0.000000
vn 0.000000 -1.000000 0.000000
vn 0.000000 -1.000000 0.000000
vn 0.000000 -1.000000 0.000000
vn -0.117291 -0.993098 -0.000229
vn -0.117291 -0.993098 -0.000229
vn 0.000000 0.000000 1.000000
vn 0.000000 0.000000 1.000000
vn 0.000000 0.000000 1.000000
vn 0.000000 0.000000 1.000000
vn 0.000000 0.000000 -1.000000
vn 0.000000 0.000000 -1.000000
vn 0.000000 0.000000 -1.000000
vn 0.000000 0.000000 -1.000000
vn 1.000000 0.000000 -0.000000
vn 1.000000 0.000000 -0.000000
vn 1.000000 0.000000 -0.000000
vn 1.000000 0.000000 -0.000000
vn 1.000000 0.000000 -0.000000
vn 1.000000 0.000000 -0.000000
vn 1.000000 0.000000 -0.000000
vn 1.000000 0.000000 -0.000000
vn 1.000000 0.000000 0.000000
vn 1.000000 0.000000 0.000000
vn 1.000000 0.000000 0.000000
vn 1.000000 0.000000 0.000000
vn 1.000000 0.000000 -0.000000
vn 1.000000 0.000000 -0.000000
vn 1.000000 0.000000 -0.000000
vn 1.000000 0.000000 -0.000000
vn 0.000000 1.000000 0.000000
vn 0.000000 1.000000 0.000000
vn 0.000000 1.000000 0.000000
vn 0.000000 1.000000 0.000000
vn 0.000000 0.000000 1.000000
vn 0.000000 0.000000 1.000000
vn 0.000000 0.000000 1.000000
vn 0.000000 0.000000 1.000000
vn 0.000000 -1.000000 0.000000
vn 0.000000 -1.000000 0.000000
vn 0.000000 -1.000000 0.000000
vn 0.000000 -1.000000 0.000000
vn 0.000000 0.000000 -1.000000
vn 0.000000 0.000000 -1.000000
vn 0.000000 0.000000 -1.000000
vn 0.000000 0.000000 -1.000000
vn -1.000000 -0.000000 0.000000
vn -1.000000 -0.000000 0.000000
vn -1.000000 -0.000000 0.000000
vn -1.000000 -0.000000 0.000000
vn -1.000000 0.000000 0.000000
vn -1.000000 0.000000 0.000000
vn -1.000000 0.000000 0.000000
vn -1.000000 0.000000 0.000000
vn -1.000000 0.000000 -0.000001
vn -1.000000 0.000000 -0.000001
vn -1.000000 0.000000 -0.000001
vn -1.000000 0.000000 -0.000001
vn -1.000000 -0.000000 0.000000
vn -1.000000 -0.000000 0.000000
vn -1.000000 -0.000000 0.000000
vn -1.000000 -0.000000 0.000000
vn -0.637524 -0.770430 0.000000
vn -0.637524 -0.770430 0.000000
vn -0.637524 -0.770430 0.000000
vn -0.637524 -0.770430 0.000000
vn 0.614475 0.788936 0.000000
vn 0.614475 0.788936 0.000000
vn 0.614475 0.788936 0.000000
vn 0.614475 0.788936 0.000000
vn 0.000000 -1.000000 0.000000
vn 0.000000 -1.000000 0.000000
vn 0.000000 -1.000000 0.000000
vn 0.000000 -1.000000 0.000000
vn 1.000000 0.000000 0.000000
vn 1.000000 0.000000 0.000000
vn 1.000000 0.000000 0.000000
vn 1.000000 0.000000 0.000000
vn 0.000000 1.000000 0.000000
vn 0.000000 1.000000 0.000000
vn 0.000000 1.000000 0.000000
vn 0.000000 1.000000 0.000000
vn 0.000000 -1.000000 0.000000
vn 0.000000 -1.000000 0.000000
vn 0.000000 -1.000000 0.000000
vn 0.000000 -1.000000 0.000000
vn 0.000000 1.000000 0.000000
vn 0.000000 1.000000 0.000000
vn 0.000000 1.000000 0.000000
vn 0.000000 1.000000 0.000000
vn -0.113894 -0.993493 0.000000
vn -0.113894 -0.993493 0.000000
vn -0.113894 -0.993493 0.000000
vn -0.113894 -0.993493 0.000000
vn 0.115484 0.993309 0.000000
vn 0.115484 0.993309 0.000000
vn 0.115484 0.993309 0.000000
vn 0.115484 0.993309 0.000000
vn 1.000000 0.000000 0.000000
vn 1.000000 0.000000 0.000000
vn 1.000000 0.000000 0.000000
vn 1.000000 0.000000 0.000000
vn 0.000000 1.000000 0.000000
vn 0.000000 1.000000 0.000000
vn 0.000000 1.000000 0.000000
vn 0.000000 1.000000 0.000000
vn -1.000000 0.000000 0.000000
vn -1.000000 0.000000 0.000000
vn -1.000000 0.000000 0.000000
vn -1.000000 0.000000 0.000000
vn 0.614475 0.788937 0.000000
vn 0.614475 0.788937 0.000000
vn 0.614475 0.788937 0.000000
vn 0.614475 0.788937 0.000000
vn -0.611534 -0.791218 0.000000
vn -0.611534 -0.791218 0.000000
vn -0.611534 -0.791218 0.000000
vn -0.611534 -0.791218 0.000000
vn 0.000000 1.000000 0.000000
vn 0.000000 1.000000 0.000000
vn 0.000000 1.000000 0.000000
vn 0.000000 1.000000 0.000000
vn 1.000000 0.000000 0.000000
vn 1.000000 0.000000 0.000000
vn 1.000000 0.000000 0.000000
vn 1.000000 0.000000 0.000000
vn 0.000000 -1.000000 0.000000
vn 0.000000 -1.000000 0.000000
vn 0.000000 -1.000000 0.000000
vn 0.000000 -1.000000 0.000000
vn 0.000000 1.000000 0.000000
vn 0.000000 1.000000 0.000000
vn 0.000000 1.000000 0.000000
vn 0.000000 1.000000 0.000000
vn 0.000000 -1.000000 0.000000
vn 0.000000 -1.000000 0.000000
vn 0.000000 -1.000000 0.000000
vn 0.000000 -1.000000 0.000000
vn 0.115484 0.993309 0.000000
vn 0.115484 0.993309 0.000000
vn 0.115484 0.993309 0.000000
vn 0.115484 0.993309 0.000000
vn -0.120895 -0.992665 0.000000
vn -0.120895 -0.992665 0.000000
vn -0.120895 -0.992665 0.000000
vn -0.120895 -0.992665 0.000000
vn -1.000000 0.000000 0.000000
vn -1.000000 0.000000 0.000000
vn -1.000000 0.000000 0.000000
vn -1.000000 0.000000 0.000000
vn 0.000000 1.000000 0.000000
vn 0.000000 1.000000 0.000000
vn 0.000000 1.000000 0.000000
vn 0.000000 1.000000 0.000000
vn 1.000000 0.000000 0.000000
vn 1.000000 0.000000 0.000000
vn 1.000000 0.000000 0.000000
vn 1.000000 0.000000 0.000000
vn -1.000000 0.000000 0.000000
vn -1.000000 0.000000 0.000000
vn -1.000000 0.000000 0.000000
vn -1.000000 0.000000 0.000000
vn 1.000000 0.000000 0.000000
vn 1.000000 0.000000 0.000000
vn 1.000000 0.000000 0.000000
vn 1.000000 0.000000 0.000000
vn 1.000000 0.000000 0.000000
vn 1.000000 0.000000 0.000000
vn 1.000000 0.000000 0.000000
vn 1.000000 0.000000 0.000000
vn 0.000000 0.000000 1.000000
vn 0.000000 0.000000 1.000000
vn 0.000000 0.000000 1.000000
vn 0.000000 0.000000 1.000000
vn -1.000000 0.000000 0.000000
vn -1.000000 0.000000 0.000000
vn -1.000000 0.000000 0.000000
vn -1.000000 0.000000 0.000000
vn -1.000000 0.000000 0.000000
vn -1.000000 0.000000 0.000000
vn -1.000000 0.000000 0.000000
vn -1.000000 0.000000 0.000000
vn 0.000000 0.000000 -1.000000
vn 0.000000 0.000000 -1.000000
vn 0.000000 0.000000 -1.000000
vn 0.000000 0.000000 -1.000000
vn 1.000000 0.000000 0.000000
vn 1.000000 0.000000 0.000000
vn 1.000000 0.000000 0.000000
vn 1.000000 0.000000 0.000000
s 1
g Escritorio Original_
usemtl initialShadingGroup
f 34/62/1 33/63/2 35/64/3 36/65/4
s 2
f 5/6/5 3/7/6 18/8/7 19/9/8
s 3
f 46/72/9 45/73/10 47/74/11 48/75/12
s 4
f 1/18/13 7/19/14 20/20/15 17/21/16
s off
f 2/30/17 8/31/18 6/32/19 4/33/20
f 21/103/21 22/104/22 23/105/23 24/106/24
s 1
f 38/69/25 37/68/26 39/70/27 40/71/28
s 2
f 11/38/29 10/39/30 4/40/31 6/41/32
s 3
f 50/79/33 49/78/34 51/80/35 52/81/36
s off
f 9/50/37 12/51/38 8/52/39 2/53/40
s 1
f 42/67/41 41/66/42 37/68/26 38/69/25
s 2
f 15/42/43 14/43/44 10/39/30 11/38/29
s 3
f 54/77/45 53/76/46 49/78/34 50/79/33
s off
f 58/135/47 57/136/48 59/137/49 60/138/50
s 1
f 36/65/4 35/64/3 41/66/42 42/67/41
s 2
f 19/9/8 18/8/7 14/12/44 15/13/43
s 3
f 48/75/12 47/74/11 53/76/46 54/77/45
s 4
f 17/21/16 20/20/15 16/24/51 13/25/52
s off
f 33/119/53 34/120/54 43/121/55 44/122/56
f 45/123/57 46/124/58 55/125/59 56/126/60
f 3/1/61 5/2/62 26/3/63 25/4/64
f 5/2/65 24/5/66 27/82/67 26/3/68
f 24/5/69 23/83/70 28/84/71 27/82/72
f 23/83/73 3/1/74 25/4/75 28/84/76
f 25/111/77 26/112/78 30/113/79 29/114/80
f 26/127/81 27/128/82 31/129/83 30/130/84
f 27/115/85 28/116/86 32/117/87 31/118/88
f 28/131/89 25/132/90 29/133/91 32/134/92
f 1/91/93 22/92/94 32/93/95 29/94/96
f 22/92/97 21/97/98 31/98/99 32/93/100
f 21/97/101 7/99/102 30/100/103 31/98/104
f 7/99/105 1/91/106 29/94/107 30/100/108
f 1/18/109 17/21/110 35/26/111 33/27/112
f 18/8/113 3/7/114 34/10/115 36/11/116
f 9/50/117 2/53/118 39/58/119 37/59/120
f 2/30/121 4/33/122 40/36/123 39/37/124
f 4/40/125 10/39/126 38/44/127 40/45/128
f 58/135/129 60/138/130 61/139/131 62/140/132
f 10/39/133 14/43/134 42/48/135 38/44/136
f 17/21/137 13/25/138 41/29/139 35/26/140
f 14/12/141 18/8/142 36/11/143 42/16/144
f 3/1/145 23/83/146 43/85/147 34/86/148
f 23/105/149 22/104/150 44/107/151 43/108/152
f 22/92/153 1/91/154 33/95/155 44/96/156
f 5/6/157 19/9/158 47/14/159 45/15/160
f 20/20/161 7/19/162 46/22/163 48/23/164
f 11/38/165 6/41/166 51/46/167 49/47/168
f 6/32/169 8/31/170 52/34/171 51/35/172
f 8/52/173 12/51/174 50/56/175 52/57/176
f 15/42/177 11/38/178 49/47/179 53/49/180
f 59/137/181 57/136/182 63/90/183 64/89/184
f 19/9/185 15/13/186 53/17/187 47/14/188
f 16/24/189 20/20/190 48/23/191 54/28/192
f 7/99/193 21/97/194 55/101/195 46/102/196
f 21/103/197 24/106/198 56/109/199 55/110/200
f 24/5/201 5/2/202 45/87/203 56/88/204
f 13/54/205 16/55/206 57/136/207 58/135/208
f 12/51/209 9/50/210 60/138/211 59/137/212
f 9/50/213 37/59/214 61/139/215 60/138/216
f 37/59/217 41/61/218 62/140/219 61/139/220
f 41/61/221 13/54/222 58/135/223 62/140/224
f 16/55/225 54/60/226 63/90/227 57/136/228
f 54/60/229 50/56/230 64/89/231 63/90/232
f 50/56/233 12/51/234 59/137/235 64/89/236
