# This file uses centimeters as units for non-parametric coordinates.

mtllib MonitorPrincipal.mtl
g default
v 1.088105 1.557783 4.299537
v 1.130679 1.557783 4.265857
v 1.088105 2.938193 4.299537
v 1.130679 2.938193 4.265857
v -0.514319 2.938193 2.273969
v -0.471745 2.938193 2.240289
v -0.514319 1.557783 2.273969
v -0.471745 1.557783 2.240289
v 0.096119 1.697926 3.250232
v 0.278530 1.697926 3.480811
v 0.278530 1.920082 3.480811
v 0.096119 1.920082 3.250232
v 0.039180 1.697926 3.295276
v 0.221591 1.697926 3.525856
v 0.221591 1.815968 3.525856
v 0.039180 1.815968 3.295276
v 0.096119 1.283066 3.250232
v 0.278530 1.283066 3.480811
v 0.221591 1.283066 3.525856
v 0.039180 1.283066 3.295276
v -0.304717 1.204171 2.578101
v 0.840374 1.204171 4.025569
v 0.632268 1.204171 4.190201
v -0.512823 1.204171 2.742733
v -0.304717 1.184599 2.578101
v 0.840374 1.184599 4.025569
v 0.632268 1.184599 4.190201
v -0.512823 1.184599 2.742733
v -0.447632 1.581190 2.270769
v 1.106566 1.581190 4.235376
v -0.447632 2.914786 2.270769
v 1.106566 2.914786 4.235376
v -0.464027 1.581190 2.283739
v 1.090171 1.581190 4.248346
v -0.464027 2.914786 2.283739
v 1.090171 2.914786 4.248346
vt 0.011464 0.456601
vt 0.984021 0.456601
vt 0.984021 0.974008
vt 0.011464 0.974008
vt 0.025812 0.003283
vt 0.025812 0.008002
vt 0.023918 0.008002
vt 0.023918 0.003283
vt 0.032471 0.003283
vt 0.032471 0.008002
vt 0.044782 0.008002
vt 0.044782 0.003283
vt 0.051441 0.003283
vt 0.051441 0.008002
vt 0.041785 0.045363
vt 0.012163 0.045363
vt 0.012163 0.045049
vt 0.041785 0.045049
vt 0.041197 0.045049
vt 0.011575 0.045049
vt 0.011575 0.044735
vt 0.041197 0.044735
vt 0.023642 0.003283
vt 0.023642 0.044735
vt 0.023267 0.044111
vt 0.023266 0.003907
vt 0.002759 0.044735
vt 0.003135 0.044111
vt 0.002759 0.003283
vt 0.003135 0.003907
vt 0.040881 0.003296
vt 0.041752 0.003283
vt 0.042378 0.044730
vt 0.041507 0.044743
vt 0.026026 0.026609
vt 0.025955 0.021890
vt 0.023989 0.026639
vt 0.023918 0.021921
vt 0.062084 0.018631
vt 0.062955 0.018625
vt 0.063255 0.060076
vt 0.062384 0.060082
vt 0.059216 0.041738
vt 0.059182 0.037019
vt 0.017891 0.003907
vt 0.017891 0.033528
vt 0.013632 0.033528
vt 0.013632 0.003907
vt 0.020942 0.021186
vt 0.020969 0.016490
vt 0.022938 0.003926
vt 0.022802 0.033764
vt 0.019892 0.016491
vt 0.018176 0.003907
vt 0.019866 0.021164
vt 0.018040 0.033740
vt 0.042964 0.058352
vt 0.002759 0.058352
vt 0.002759 0.058017
vt 0.042964 0.058017
vt 0.061771 0.058017
vt 0.021567 0.058017
vt 0.021567 0.057681
vt 0.061771 0.057681
vt 0.062193 0.010793
vt 0.063053 0.010934
vt 0.059694 0.031545
vt 0.058834 0.031404
vt 0.043019 0.013560
vt 0.043592 0.010041
vt 0.042138 0.011724
vt 0.042442 0.009854
vt 0.043513 0.003282
vt 0.044663 0.003470
vt 0.056357 0.029930
vt 0.057219 0.029810
vt 0.060090 0.050495
vt 0.059227 0.050614
vt 0.040613 0.050926
vt 0.040123 0.047395
vt 0.039459 0.051086
vt 0.039199 0.049210
vt 0.041528 0.057521
vt 0.040374 0.057682
vt 0.036992 0.003597
vt 0.032734 0.003597
vt 0.032734 0.003283
vt 0.036993 0.003283
vt 0.051541 0.003283
vt 0.055800 0.003283
vt 0.055800 0.003597
vt 0.051541 0.003597
vt 0.041404 0.045699
vt 0.021273 0.045699
vt 0.021273 0.045363
vt 0.041404 0.045363
vt 0.022890 0.046035
vt 0.002759 0.046034
vt 0.002759 0.045699
vt 0.022891 0.045699
vn 0.620428 0.000000 0.784263
vn 0.620428 0.000000 0.784263
vn 0.620428 0.000000 0.784263
vn 0.620428 0.000000 0.784263
vn 0.000000 1.000000 0.000003
vn 0.000000 1.000000 0.000003
vn 0.000000 1.000000 0.000003
vn 0.000000 1.000000 0.000003
vn -0.620428 0.000000 -0.784264
vn -0.620428 0.000000 -0.784264
vn -0.620428 0.000000 -0.784264
vn -0.620428 0.000000 -0.784264
vn 0.000000 -1.000000 0.000000
vn 0.000000 -1.000000 0.000000
vn 0.000000 -1.000000 0.000000
vn 0.000000 -1.000000 0.000000
vn 0.784263 0.000000 -0.620429
vn 0.784263 0.000000 -0.620429
vn 0.784263 0.000000 -0.620429
vn 0.784263 0.000000 -0.620429
vn -0.784262 0.000000 0.620430
vn -0.784262 0.000000 0.620430
vn -0.784262 0.000000 0.620430
vn -0.784262 0.000000 0.620430
vn -0.581225 -0.671384 0.459807
vn -0.581225 -0.671384 0.459807
vn -0.581225 -0.671384 0.459807
vn -0.581225 -0.671384 0.459807
vn -0.711070 0.000000 0.703122
vn -0.711070 0.000000 0.703122
vn -0.711070 0.000000 0.703122
vn -0.711070 0.000000 0.703122
vn -0.778235 0.123741 0.615661
vn -0.778235 0.123741 0.615661
vn -0.778235 0.123741 0.615661
vn -0.778235 0.123741 0.615661
vn -0.847892 0.000000 0.530170
vn -0.847892 0.000000 0.530170
vn -0.847892 0.000000 0.530170
vn -0.847892 0.000000 0.530170
vn 0.000000 -1.000000 0.000000
vn 0.000000 -1.000000 0.000000
vn 0.000000 -1.000000 0.000000
vn 0.000000 -1.000000 0.000000
vn 0.620429 0.000000 0.784263
vn 0.620429 0.000000 0.784263
vn 0.620429 0.000000 0.784263
vn 0.620429 0.000000 0.784263
vn -0.643298 0.571993 0.508913
vn -0.643298 0.571993 0.508913
vn -0.643298 0.571993 0.508913
vn -0.643298 0.571993 0.508913
vn -0.620427 0.000000 -0.784264
vn -0.620427 0.000000 -0.784264
vn -0.620427 0.000000 -0.784264
vn -0.620427 0.000000 -0.784264
vn 0.784262 0.000000 -0.620430
vn 0.784262 0.000000 -0.620430
vn 0.784262 0.000000 -0.620430
vn 0.784262 0.000000 -0.620430
vn 0.620427 0.000000 0.784264
vn 0.620427 0.000000 0.784264
vn 0.620427 0.000000 0.784264
vn 0.620427 0.000000 0.784264
vn -0.784262 0.000000 0.620430
vn -0.784262 0.000000 0.620430
vn -0.784262 0.000000 0.620430
vn -0.784262 0.000000 0.620430
vn -0.620427 0.000000 -0.784264
vn -0.620427 0.000000 -0.784264
vn -0.620427 0.000000 -0.784264
vn -0.620427 0.000000 -0.784264
vn 0.477920 0.792873 -0.378082
vn 0.477919 0.792873 -0.378082
vn 0.477920 0.792873 -0.378082
vn 0.477920 0.792873 -0.378082
vn 0.062769 0.994869 0.079344
vn 0.062769 0.994869 0.079344
vn 0.062769 0.994869 0.079344
vn 0.062769 0.994869 0.079344
vn -0.516647 0.752347 0.408718
vn -0.516647 0.752347 0.408718
vn -0.516647 0.752347 0.408718
vn -0.516647 0.752347 0.408718
vn -0.062769 0.994869 -0.079344
vn -0.062769 0.994869 -0.079344
vn -0.062769 0.994869 -0.079344
vn -0.062769 0.994869 -0.079344
vn 0.784263 0.000000 -0.620429
vn 0.784263 0.000000 -0.620429
vn 0.784263 0.000000 -0.620429
vn 0.784263 0.000000 -0.620429
vn 0.620428 0.000000 0.784264
vn 0.620428 0.000000 0.784264
vn 0.620428 0.000000 0.784264
vn 0.620428 0.000000 0.784264
vn -0.784263 0.000000 0.620429
vn -0.784263 0.000000 0.620429
vn -0.784263 0.000000 0.620429
vn -0.784263 0.000000 0.620429
vn -0.620430 0.000000 -0.784262
vn -0.620430 0.000000 -0.784262
vn -0.620430 0.000000 -0.784262
vn -0.620430 0.000000 -0.784262
vn 0.784261 -0.000007 -0.620431
vn 0.784261 -0.000007 -0.620431
vn 0.784261 -0.000007 -0.620431
vn 0.784261 -0.000007 -0.620431
vn 0.784259 0.000000 -0.620433
vn 0.784259 0.000000 -0.620433
vn 0.784259 0.000000 -0.620433
vn 0.784259 0.000000 -0.620433
vn 0.784266 0.000007 -0.620425
vn 0.784266 0.000007 -0.620425
vn 0.784266 0.000007 -0.620425
vn 0.784266 0.000007 -0.620425
vn 0.784270 0.000000 -0.620419
vn 0.784270 0.000000 -0.620419
vn 0.784270 0.000000 -0.620419
vn 0.784270 0.000000 -0.620419
vn 0.000000 1.000000 -0.000001
vn 0.000000 1.000000 -0.000001
vn 0.000000 1.000000 -0.000001
vn 0.000000 1.000000 -0.000001
vn 0.620434 0.000000 0.784258
vn 0.620434 0.000000 0.784258
vn 0.620434 0.000000 0.784258
vn 0.620434 0.000000 0.784258
vn 0.000000 -1.000000 -0.000006
vn 0.000000 -1.000000 -0.000006
vn 0.000000 -1.000000 -0.000006
vn 0.000000 -1.000000 -0.000006
vn -0.620430 0.000000 -0.784262
vn -0.620430 0.000000 -0.784262
vn -0.620430 0.000000 -0.784262
vn -0.620430 0.000000 -0.784262
s off
g Monitor_Principal Original_
usemtl phong1SG
f 1/65/1 2/66/2 4/67/3 3/68/4
f 3/31/5 4/32/6 6/33/7 5/34/8
f 5/75/9 6/76/10 8/77/11 7/78/12
f 7/39/13 8/40/14 2/41/15 1/42/16
f 34/1/17 33/2/18 35/3/19 36/4/20
f 13/5/21 14/6/22 15/7/23 16/8/24
f 7/39/25 1/42/26 10/43/27 9/44/28
f 1/65/29 3/68/30 11/69/31 10/70/32
f 3/31/33 5/34/34 12/35/35 11/36/36
f 5/75/37 7/78/38 9/79/39 12/80/40
f 25/45/41 26/46/42 27/47/43 28/48/44
f 10/70/45 11/69/46 15/71/47 14/72/48
f 11/36/49 12/35/50 16/37/51 15/38/52
f 12/80/53 9/79/54 13/81/55 16/82/56
f 9/11/57 10/12/58 18/13/59 17/14/60
f 10/70/61 14/72/62 19/73/63 18/74/64
f 14/6/65 13/5/66 20/9/67 19/10/68
f 13/81/69 9/79/70 17/83/71 20/84/72
f 17/49/73 18/50/74 22/51/75 21/52/76
f 18/50/77 19/53/78 23/54/79 22/51/80
f 19/53/81 20/55/82 24/56/83 23/54/84
f 20/55/85 17/49/86 21/52/87 24/56/88
f 21/15/89 22/16/90 26/17/91 25/18/92
f 22/85/93 23/86/94 27/87/95 26/88/96
f 23/19/97 24/20/98 28/21/99 27/22/100
f 24/89/101 21/90/102 25/91/103 28/92/104
f 2/23/105 8/24/106 29/25/107 30/26/108
f 8/24/109 6/27/110 31/28/111 29/25/112
f 6/27/113 4/29/114 32/30/115 31/28/116
f 4/29/117 2/23/118 30/26/119 32/30/120
f 30/57/121 29/58/122 33/59/123 34/60/124
f 29/93/125 31/94/126 35/95/127 33/96/128
f 31/61/129 32/62/130 36/63/131 35/64/132
f 32/97/133 30/98/134 34/99/135 36/100/136
