# This file uses centimeters as units for non-parametric coordinates.

mtllib SD_Boton4.mtl
g default
v 0.351311 1.209135 0.350733
v 0.312175 1.209135 0.256639
v 0.217691 1.209135 0.217664
v 0.351311 1.209135 0.714368
v -0.150066 1.209135 0.714368
v -0.150066 1.209135 0.217664
v -0.126701 1.382949 0.691003
v -0.143222 1.376105 0.707524
v -0.150066 1.359584 0.714368
v -0.150066 1.359584 0.217664
v -0.143222 1.376105 0.224508
v -0.126701 1.382949 0.241029
v 0.327947 1.382949 0.691003
v 0.344468 1.376105 0.707524
v 0.351311 1.359584 0.714368
v 0.327947 1.382949 0.355398
v 0.344468 1.376105 0.352099
v 0.351311 1.359584 0.350733
v 0.294318 1.382949 0.274547
v 0.306945 1.376105 0.261884
v 0.312175 1.359584 0.256639
v 0.213061 1.382949 0.241029
v 0.216335 1.376105 0.224508
v 0.217691 1.359584 0.217664
vt 0.983006 0.001170
vt 0.984757 0.001896
vt 0.984757 0.053117
vt 0.983006 0.053843
vt 0.953699 0.053843
vt 0.953699 0.001170
vt 0.952622 0.223056
vt 0.952622 0.184167
vt 0.982178 0.184167
vt 0.982178 0.223056
vt 0.952622 0.174104
vt 0.982178 0.174104
vt 0.983945 0.222324
vt 0.983945 0.184313
vt 0.983945 0.174665
vt 0.745788 0.220693
vt 0.752271 0.214210
vt 0.928843 0.214210
vt 0.935326 0.220693
vt 0.745788 0.029321
vt 0.752271 0.035804
vt 0.883964 0.035804
vt 0.915690 0.049000
vt 0.928843 0.080886
vt 0.935326 0.079601
vt 0.885259 0.029321
vt 0.920659 0.044045
vt 0.952754 0.112903
vt 0.952754 0.059735
vt 0.982061 0.059735
vt 0.982061 0.112903
vt 0.983813 0.112177
vt 0.983813 0.060461
vt 0.984203 0.118205
vt 0.984203 0.128307
vt 0.954653 0.128307
vt 0.954653 0.118205
vt 0.984203 0.167630
vt 0.954653 0.167630
vt 0.952886 0.118764
vt 0.952886 0.128452
vt 0.952886 0.166898
vn -0.999495 0.031764 0.000000
vn -0.923879 0.382684 0.000000
vn -0.923879 0.382684 0.000000
vn -0.999495 0.031765 0.000000
vn -0.382687 0.923878 0.000000
vn -0.021049 0.999552 0.021260
vn -0.021333 0.999645 -0.015991
vn -0.382686 0.923878 0.000000
vn 0.015800 0.999643 0.021546
vn 0.009166 0.999958 -0.000757
vn 0.003347 0.999989 -0.003362
vn 0.000752 0.999957 -0.009244
vn -1.000000 0.000000 0.000000
vn -1.000000 0.000000 0.000000
vn 0.000000 0.000000 1.000000
vn 0.000000 0.000000 1.000000
vn 0.000000 0.031769 0.999495
vn 0.000000 0.031769 0.999495
vn 1.000000 0.000000 0.000000
vn 0.996365 0.000000 -0.085191
vn 0.995604 0.039198 -0.085066
vn 0.999493 0.031838 0.000000
vn 0.923318 0.000000 -0.384036
vn 0.922702 0.036528 -0.383780
vn 0.381333 0.000000 -0.924438
vn 0.084019 0.000000 -0.996464
vn 0.083896 0.039206 -0.995703
vn 0.381079 0.036532 -0.923820
vn 0.000000 0.000000 -1.000000
vn 0.000000 0.031842 -0.999493
vn 0.000000 0.923875 0.382694
vn 0.000000 0.923875 0.382694
vn 0.000000 0.382686 0.923878
vn 0.000000 0.382686 0.923878
vn 0.382687 0.923878 0.000000
vn 0.377190 0.925613 -0.031131
vn 0.923879 0.382684 0.000000
vn 0.918771 0.387016 -0.077967
vn 0.252178 0.933947 -0.253279
vn 0.853035 0.382683 -0.354802
vn 0.030705 0.925578 -0.377309
vn 0.352309 0.382686 -0.854067
vn 0.076895 0.386930 -0.918897
vn 0.000000 0.382681 -0.923880
vn 0.000000 0.923878 -0.382688
s 1
g Botón3 Simon_Dice Original_
usemtl initialShadingGroup
f 9/1/1 8/2/2 11/3/3 10/4/4
s 2
f 8/16/5 7/17/6 12/18/7 11/19/8
f 12/18/7 7/17/6 13/21/9 16/22/10 19/23/11 22/24/12
s 1
f 6/5/13 5/6/14 9/1/1 10/4/4
s 3
f 5/28/15 4/29/16 15/30/17 9/31/18
s 4
f 4/7/19 1/8/20 18/9/21 15/10/22
f 1/8/20 2/11/23 21/12/24 18/9/21
s 5
f 2/34/25 3/35/26 24/36/27 21/37/28
f 3/35/26 6/38/29 10/39/30 24/36/27
s 2
f 7/17/6 8/16/31 14/20/32 13/21/9
s 3
f 8/32/33 9/31/18 15/30/17 14/33/34
s 2
f 13/21/9 14/20/35 17/26/36 16/22/10
s 4
f 14/13/37 15/10/22 18/9/21 17/14/38
s 2
f 16/22/10 17/26/36 20/27/39 19/23/11
s 4
f 17/14/38 18/9/21 21/12/24 20/15/40
s 2
f 19/23/11 20/27/39 23/25/41 22/24/12
s 5
f 20/40/42 21/37/28 24/36/27 23/41/43
f 10/39/30 11/42/44 23/41/43 24/36/27
s 2
f 11/19/45 12/18/7 22/24/12 23/25/41
