# This file uses centimeters as units for non-parametric coordinates.

mtllib MonitorKPEI.mtl
g default
v -1.299271 3.190958 2.854050
v -1.252065 3.190958 2.854050
v -1.299271 3.190958 4.627974
v -1.252065 3.190958 4.627974
v -1.299271 4.987729 4.627974
v -1.252065 4.987729 4.627974
v -1.299271 4.987729 2.854050
v -1.252065 4.987729 2.854050
v -1.449583 4.191611 3.555501
v -1.449583 3.987076 3.555501
v -1.449583 3.987076 3.840986
v -1.449583 4.191611 3.840986
v -1.252065 4.960691 2.884130
v -1.252065 3.217995 2.884130
v -1.252065 4.960691 4.597893
v -1.252065 3.217995 4.597894
v -1.270244 4.960691 2.884130
v -1.270244 3.217995 2.884130
v -1.270244 4.960691 4.597893
v -1.270244 3.217995 4.597894
vt 0.019056 0.087300
vt 0.929002 0.087300
vt 0.929002 0.982138
vt 0.019056 0.982138
vt 0.948457 0.010579
vt 0.948457 0.052031
vt 0.948082 0.051408
vt 0.948081 0.011203
vt 0.927574 0.052032
vt 0.927950 0.051408
vt 0.927574 0.010579
vt 0.927950 0.011203
vt 0.965696 0.010592
vt 0.966567 0.010579
vt 0.967193 0.052027
vt 0.966322 0.052040
vt 0.950841 0.033905
vt 0.950770 0.029187
vt 0.986899 0.025928
vt 0.987770 0.025921
vt 0.988070 0.067372
vt 0.987199 0.067379
vt 0.984031 0.049034
vt 0.983997 0.044316
vt 0.967779 0.065649
vt 0.927574 0.065649
vt 0.927574 0.065313
vt 0.967779 0.065313
vt 0.986586 0.065313
vt 0.946382 0.065313
vt 0.946382 0.064978
vt 0.986586 0.064978
vt 0.987008 0.018090
vt 0.987868 0.018230
vt 0.984509 0.038841
vt 0.983649 0.038701
vt 0.967834 0.020857
vt 0.968407 0.017338
vt 0.981172 0.037226
vt 0.982034 0.037106
vt 0.984905 0.057791
vt 0.984042 0.057911
vt 0.965428 0.058223
vt 0.964938 0.054691
vt 0.966219 0.052995
vt 0.946088 0.052995
vt 0.946088 0.052660
vt 0.966219 0.052660
vt 0.947706 0.053331
vt 0.927574 0.053331
vt 0.927574 0.052995
vt 0.947706 0.052995
vn 0.000000 -1.000000 0.000000
vn 0.000000 -1.000000 0.000000
vn 0.000000 -1.000000 0.000000
vn 0.000000 -1.000000 0.000000
vn 0.000000 0.000000 1.000000
vn 0.000000 0.000000 1.000000
vn 0.000000 0.000000 1.000000
vn 0.000000 0.000000 1.000000
vn 0.000000 1.000000 0.000000
vn 0.000000 1.000000 0.000000
vn 0.000000 1.000000 0.000000
vn 0.000000 1.000000 0.000000
vn 0.000000 0.000000 -1.000000
vn 0.000000 0.000000 -1.000000
vn 0.000000 0.000000 -1.000000
vn 0.000000 0.000000 -1.000000
vn 1.000000 0.000000 0.000000
vn 1.000000 0.000000 0.000000
vn 1.000000 0.000000 0.000000
vn 1.000000 0.000000 0.000000
vn -0.977802 0.000000 -0.209530
vn -0.977802 0.000000 -0.209530
vn -0.977802 0.000000 -0.209530
vn -0.977802 0.000000 -0.209530
vn -0.982639 -0.185528 0.000000
vn -0.982639 -0.185528 0.000000
vn -0.982639 -0.185528 0.000000
vn -0.982639 -0.185528 0.000000
vn -0.982245 0.000000 0.187605
vn -0.982245 0.000000 0.187605
vn -0.982245 0.000000 0.187605
vn -0.982245 0.000000 0.187605
vn -0.982639 0.185528 0.000000
vn -0.982639 0.185528 0.000000
vn -0.982639 0.185528 0.000000
vn -0.982639 0.185528 0.000000
vn 1.000000 0.000000 0.000000
vn 1.000000 0.000000 0.000000
vn 1.000000 0.000000 0.000000
vn 1.000000 0.000000 0.000000
vn 1.000000 0.000001 0.000000
vn 1.000000 0.000001 0.000000
vn 1.000000 0.000001 0.000000
vn 1.000000 0.000001 0.000000
vn 1.000000 0.000000 0.000000
vn 1.000000 0.000000 0.000000
vn 1.000000 0.000000 0.000000
vn 1.000000 0.000000 0.000000
vn 1.000000 0.000003 0.000000
vn 1.000000 0.000003 0.000000
vn 1.000000 0.000003 0.000000
vn 1.000000 0.000003 0.000000
vn 0.000000 0.000000 1.000000
vn 0.000000 0.000000 1.000000
vn 0.000000 0.000000 1.000000
vn 0.000000 0.000000 1.000000
vn 0.000000 -1.000000 -0.000000
vn 0.000000 -1.000000 -0.000000
vn 0.000000 -1.000000 -0.000000
vn 0.000000 -1.000000 -0.000000
vn 0.000000 -0.000000 -1.000000
vn 0.000000 -0.000000 -1.000000
vn 0.000000 -0.000000 -1.000000
vn 0.000000 -0.000000 -1.000000
vn 0.000000 1.000000 0.000000
vn 0.000000 1.000000 0.000000
vn 0.000000 1.000000 0.000000
vn 0.000000 1.000000 0.000000
s off
g Monitor_Principal1 Original_
usemtl phong1SG
f 1/33/1 2/34/2 4/35/3 3/36/4
f 3/13/5 4/14/6 6/15/7 5/16/8
f 5/39/9 6/40/10 8/41/11 7/42/12
f 7/19/13 8/20/14 2/21/15 1/22/16
f 18/1/17 17/2/18 19/3/19 20/4/20
f 7/19/21 1/22/22 10/23/23 9/24/24
f 1/33/25 3/36/26 11/37/27 10/38/28
f 3/13/29 5/16/30 12/17/31 11/18/32
f 5/39/33 7/42/34 9/43/35 12/44/36
f 2/5/37 8/6/38 13/7/39 14/8/40
f 8/6/41 6/9/42 15/10/43 13/7/44
f 6/9/45 4/11/46 16/12/47 15/10/48
f 4/11/49 2/5/50 14/8/51 16/12/52
f 14/25/53 13/26/54 17/27/55 18/28/56
f 13/45/57 15/46/58 19/47/59 17/48/60
f 15/29/61 16/30/62 20/31/63 19/32/64
f 16/49/65 14/50/66 18/51/67 20/52/68
