# This file uses centimeters as units for non-parametric coordinates.

mtllib Perilla.mtl
g default
v 1.468165 1.246560 -0.781613
v 1.405235 1.246560 -0.875795
v 1.311053 1.246560 -0.938725
v 1.199957 1.246560 -0.960823
v 1.088862 1.246560 -0.938725
v 0.994680 1.246560 -0.875795
v 0.931749 1.246560 -0.781613
v 0.931749 1.246560 -0.559422
v 0.994680 1.246560 -0.465240
v 1.088862 1.246560 -0.402309
v 1.199957 1.246560 -0.380211
v 1.311052 1.246560 -0.402309
v 1.405234 1.246560 -0.465240
v 1.468165 1.246560 -0.559422
v 1.490263 1.246560 -0.670517
v 1.445431 1.332054 -0.772196
v 1.387835 1.332054 -0.858395
v 1.301636 1.332054 -0.915991
v 1.199957 1.332054 -0.936216
v 1.098279 1.332054 -0.915991
v 1.012080 1.332054 -0.858395
v 0.954483 1.332054 -0.772196
v 0.934258 1.332054 -0.670517
v 0.954483 1.332054 -0.568839
v 1.012079 1.332054 -0.482640
v 1.098278 1.332054 -0.425043
v 1.199957 1.332054 -0.404818
v 1.301636 1.332054 -0.425043
v 1.387835 1.332054 -0.482640
v 1.445431 1.332054 -0.568839
v 1.465656 1.332054 -0.670517
v 1.413897 1.371859 -0.759134
v 1.363700 1.371859 -0.834260
v 1.199957 1.371859 -0.670517
v 1.288574 1.371859 -0.884457
v 1.199957 1.371859 -0.902084
v 1.111340 1.371859 -0.884457
v 1.036215 1.371859 -0.834260
v 0.986017 1.371859 -0.759134
v 0.968390 1.371859 -0.670517
v 0.986017 1.371859 -0.581900
v 1.036215 1.371859 -0.506775
v 1.111340 1.371859 -0.456577
v 1.199957 1.371859 -0.438950
v 1.288574 1.371859 -0.456577
v 1.363700 1.371859 -0.506775
v 1.413897 1.371859 -0.581900
v 1.431524 1.371859 -0.670517
v 0.847534 1.246560 -0.670517
v 0.847535 1.332054 -0.670517
vt 0.375000 0.312500
vt 0.390625 0.312500
vt 0.406250 0.312500
vt 0.421875 0.312500
vt 0.437500 0.312500
vt 0.453125 0.312500
vt 0.468750 0.312500
vt 0.500000 0.312500
vt 0.515625 0.312500
vt 0.531250 0.312500
vt 0.546875 0.312500
vt 0.562500 0.312500
vt 0.578125 0.312500
vt 0.593750 0.312500
vt 0.609375 0.312500
vt 0.625000 0.312500
vt 0.375000 0.687500
vt 0.390625 0.687500
vt 0.406250 0.687500
vt 0.421875 0.687500
vt 0.437500 0.687500
vt 0.453125 0.687500
vt 0.468750 0.687500
vt 0.484375 0.687500
vt 0.500000 0.687500
vt 0.515625 0.687500
vt 0.531250 0.687500
vt 0.546875 0.687500
vt 0.562500 0.687500
vt 0.578125 0.687500
vt 0.593750 0.687500
vt 0.609375 0.687500
vt 0.625000 0.687500
vt 0.644356 0.783956
vt 0.610485 0.733265
vt 0.559794 0.699394
vt 0.500000 0.687500
vt 0.440206 0.699394
vt 0.389515 0.733265
vt 0.355644 0.783956
vt 0.343750 0.843750
vt 0.355644 0.903544
vt 0.389515 0.954235
vt 0.440206 0.988106
vt 0.500000 1.000000
vt 0.559794 0.988106
vt 0.610485 0.954235
vt 0.644356 0.903544
vt 0.656250 0.843750
vt 0.500000 0.843750
vt 0.644356 0.903544
vt 0.610485 0.954235
vt 0.559794 0.988106
vt 0.500000 1.000000
vt 0.440206 0.988106
vt 0.389515 0.954235
vt 0.355644 0.903544
vt 0.343750 0.843750
vt 0.355644 0.783956
vt 0.389515 0.733265
vt 0.440206 0.699394
vt 0.500000 0.687500
vt 0.559794 0.699394
vt 0.610485 0.733265
vt 0.644356 0.783956
vt 0.656250 0.843750
vt 0.484375 0.312500
vt 0.484375 0.687500
vn 0.887837 0.276591 -0.367754
vn 0.679522 0.276589 -0.679521
vn 0.679522 0.276589 -0.679521
vn 0.887837 0.276591 -0.367754
vn 0.367756 0.276587 -0.887838
vn 0.367755 0.276587 -0.887838
vn 0.000001 0.276588 -0.960989
vn 0.000001 0.276588 -0.960989
vn -0.367754 0.276590 -0.887837
vn -0.367754 0.276590 -0.887837
vn -0.679521 0.276590 -0.679521
vn -0.679521 0.276590 -0.679521
vn -0.800198 0.271672 -0.534676
vn -0.800197 0.271672 -0.534676
vn -0.737118 0.134477 0.662248
vn -0.983763 0.179475 -0.000001
vn -0.983763 0.179475 -0.000001
vn -0.737118 0.134477 0.662248
vn -0.800198 0.271669 0.534677
vn -0.679522 0.276588 0.679522
vn -0.679522 0.276588 0.679522
vn -0.800198 0.271669 0.534677
vn -0.367755 0.276588 0.887837
vn -0.367755 0.276588 0.887837
vn -0.000000 0.276588 0.960989
vn -0.000000 0.276588 0.960989
vn 0.367754 0.276589 0.887837
vn 0.367754 0.276589 0.887837
vn 0.679521 0.276590 0.679522
vn 0.679521 0.276590 0.679521
vn 0.887837 0.276590 0.367754
vn 0.887837 0.276590 0.367754
vn 0.960988 0.276590 0.000001
vn 0.960988 0.276590 0.000001
vn 0.000000 1.000000 0.000000
vn 0.000000 1.000000 0.000000
vn 0.000000 1.000000 0.000000
vn 0.000000 1.000000 0.000000
vn 0.000000 1.000000 0.000000
vn 0.000000 1.000000 0.000000
vn 0.000000 1.000000 -0.000000
vn 0.000000 1.000000 -0.000001
vn 0.000000 1.000000 0.000000
vn 0.000000 1.000000 0.000001
vn 0.000000 1.000000 0.000001
vn 0.000000 1.000000 0.000000
vn 0.000000 1.000000 0.000000
vn 0.000000 1.000000 -0.000000
vn 0.000000 1.000000 0.000000
vn 0.000000 1.000000 0.000001
vn 0.000000 1.000000 0.000000
vn 0.636343 0.643646 -0.425191
vn 0.636343 0.643646 -0.425191
vn 0.636343 0.643646 -0.425191
vn 0.636343 0.643646 -0.425191
vn 0.425189 0.643649 -0.636341
vn 0.425189 0.643649 -0.636341
vn 0.425189 0.643649 -0.636341
vn 0.425189 0.643649 -0.636341
vn 0.149308 0.643650 -0.750615
vn 0.149308 0.643650 -0.750615
vn 0.149308 0.643650 -0.750615
vn 0.149308 0.643650 -0.750615
vn -0.149308 0.643648 -0.750616
vn -0.149308 0.643648 -0.750616
vn -0.149308 0.643648 -0.750616
vn -0.149308 0.643648 -0.750616
vn -0.425189 0.643649 -0.636341
vn -0.425189 0.643649 -0.636341
vn -0.425189 0.643649 -0.636341
vn -0.425189 0.643649 -0.636341
vn -0.636342 0.643647 -0.425191
vn -0.636342 0.643647 -0.425191
vn -0.636342 0.643647 -0.425191
vn -0.636342 0.643647 -0.425191
vn -0.750617 0.643646 -0.149308
vn -0.750617 0.643646 -0.149308
vn -0.750617 0.643646 -0.149308
vn -0.750617 0.643646 -0.149308
vn -0.750617 0.643647 0.149307
vn -0.750618 0.643647 0.149307
vn -0.750618 0.643647 0.149307
vn -0.750617 0.643647 0.149307
vn -0.636342 0.643646 0.425192
vn -0.636342 0.643646 0.425192
vn -0.636342 0.643646 0.425192
vn -0.636342 0.643646 0.425192
vn -0.425192 0.643648 0.636340
vn -0.425192 0.643648 0.636340
vn -0.425192 0.643648 0.636340
vn -0.425192 0.643648 0.636340
vn -0.149306 0.643647 0.750617
vn -0.149306 0.643647 0.750617
vn -0.149306 0.643647 0.750617
vn -0.149306 0.643647 0.750617
vn 0.149307 0.643647 0.750617
vn 0.149307 0.643647 0.750617
vn 0.149307 0.643647 0.750617
vn 0.149307 0.643647 0.750617
vn 0.425191 0.643648 0.636341
vn 0.425191 0.643648 0.636341
vn 0.425191 0.643648 0.636341
vn 0.425191 0.643648 0.636341
vn 0.636342 0.643647 0.425191
vn 0.636342 0.643647 0.425191
vn 0.636342 0.643647 0.425191
vn 0.636342 0.643647 0.425191
vn 0.750617 0.643647 0.149306
vn 0.750617 0.643647 0.149306
vn 0.750617 0.643647 0.149306
vn 0.750617 0.643647 0.149306
vn 0.750618 0.643646 -0.149308
vn 0.750617 0.643646 -0.149308
vn 0.750617 0.643646 -0.149308
vn 0.750618 0.643646 -0.149308
vn -0.000001 1.000000 0.000002
vn -0.000001 1.000000 0.000002
vn -0.000001 1.000000 0.000002
vn -0.737117 0.134478 -0.662250
vn -0.737117 0.134478 -0.662250
vn -0.000001 1.000000 0.000000
vn -0.000001 1.000000 0.000000
vn -0.000001 1.000000 0.000000
s 1
g Perilla Perilla Original_
usemtl phong1SG
f 1/1/1 2/2/2 17/18/3 16/17/4
f 2/2/2 3/3/5 18/19/6 17/18/3
f 3/3/5 4/4/7 19/20/8 18/19/6
f 4/4/7 5/5/9 20/21/10 19/20/8
f 5/5/9 6/6/11 21/22/12 20/21/10
f 6/6/11 7/7/13 22/23/14 21/22/12
s 2
f 24/25/15 50/68/16 49/67/17 8/8/18
s 1
f 8/8/19 9/9/20 25/26/21 24/25/22
f 9/9/20 10/10/23 26/27/24 25/26/21
f 10/10/23 11/11/25 27/28/26 26/27/24
f 11/11/25 12/12/27 28/29/28 27/28/26
f 12/12/27 13/13/29 29/30/30 28/29/28
f 13/13/29 14/14/31 30/31/32 29/30/30
f 14/14/31 15/15/33 31/32/34 30/31/32
f 15/15/33 1/16/1 16/33/4 31/32/34
s 4
f 32/51/35 33/52/36 34/50/37
f 33/52/36 35/53/38 34/50/37
f 35/53/38 36/54/39 34/50/37
f 36/54/39 37/55/40 34/50/37
f 37/55/40 38/56/41 34/50/37
f 38/56/41 39/57/42 34/50/37
f 39/57/42 40/58/43 34/50/37
f 40/58/43 41/59/44 34/50/37
f 41/59/44 42/60/45 34/50/37
f 42/60/45 43/61/46 34/50/37
f 43/61/46 44/62/47 34/50/37
f 44/62/47 45/63/48 34/50/37
f 45/63/48 46/64/49 34/50/37
f 46/64/49 47/65/50 34/50/37
f 47/65/50 48/66/51 34/50/37
f 48/66/51 32/51/35 34/50/37
s off
f 16/48/52 17/47/53 33/52/54 32/51/55
f 17/47/56 18/46/57 35/53/58 33/52/59
f 18/46/60 19/45/61 36/54/62 35/53/63
f 19/45/64 20/44/65 37/55/66 36/54/67
f 20/44/68 21/43/69 38/56/70 37/55/71
f 21/43/72 22/42/73 39/57/74 38/56/75
f 22/42/76 23/41/77 40/58/78 39/57/79
f 23/41/80 24/40/81 41/59/82 40/58/83
f 24/40/84 25/39/85 42/60/86 41/59/87
f 25/39/88 26/38/89 43/61/90 42/60/91
f 26/38/92 27/37/93 44/62/94 43/61/95
f 27/37/96 28/36/97 45/63/98 44/62/99
f 28/36/100 29/35/101 46/64/102 45/63/103
f 29/35/104 30/34/105 47/65/106 46/64/107
f 30/34/108 31/49/109 48/66/110 47/65/111
f 31/49/112 16/48/113 32/51/114 48/66/115
f 23/24/116 22/23/117 50/68/118
s 2
f 22/23/119 7/7/120 49/67/17 50/68/16
s off
f 24/25/121 23/24/122 50/68/123
