# This file uses centimeters as units for non-parametric coordinates.

mtllib SD_Boton3.mtl
g default
v 0.215906 1.209135 1.255344
v 0.309999 1.209135 1.216207
v 0.348974 1.209135 1.121724
v -0.147729 1.209135 1.255344
v -0.147729 1.209135 0.753967
v 0.348974 1.209135 0.753967
v -0.124365 1.382949 0.777332
v -0.140886 1.376105 0.760811
v -0.147729 1.359584 0.753967
v 0.348974 1.359584 0.753967
v 0.342131 1.376105 0.760810
v 0.325610 1.382949 0.777332
v -0.124365 1.382949 1.231979
v -0.140886 1.376105 1.248500
v -0.147729 1.359584 1.255344
v 0.211241 1.382949 1.231979
v 0.214539 1.376105 1.248500
v 0.215906 1.359584 1.255344
v 0.292091 1.382949 1.198351
v 0.304754 1.376105 1.210978
v 0.309999 1.359584 1.216207
v 0.325610 1.382949 1.117094
v 0.342131 1.376105 1.120368
v 0.348974 1.359584 1.121724
vt 0.502678 0.121470
vt 0.502678 0.072476
vt 0.529684 0.072476
vt 0.529684 0.121470
vt 0.531299 0.120801
vt 0.531299 0.073144
vt 0.502610 0.173023
vt 0.502610 0.163713
vt 0.529840 0.163713
vt 0.529840 0.173023
vt 0.502610 0.127478
vt 0.529840 0.127478
vt 0.531468 0.172507
vt 0.531468 0.163580
vt 0.531468 0.128152
vt 0.729901 0.221854
vt 0.723418 0.215371
vt 0.723418 0.038799
vt 0.729901 0.032316
vt 0.538530 0.221854
vt 0.545013 0.215371
vt 0.545013 0.083678
vt 0.558208 0.051952
vt 0.590094 0.038799
vt 0.588809 0.032316
vt 0.538530 0.082384
vt 0.553254 0.046983
vt 0.504973 0.065614
vt 0.503358 0.064946
vt 0.503358 0.017746
vt 0.504973 0.017077
vt 0.531979 0.017077
vt 0.531979 0.065614
vt 0.502557 0.223958
vt 0.502557 0.188122
vt 0.529792 0.188122
vt 0.529792 0.223958
vt 0.502557 0.178849
vt 0.529792 0.178849
vt 0.531420 0.223284
vt 0.531420 0.188257
vt 0.531420 0.179366
vn -0.000000 0.031764 -0.999495
vn -0.000000 0.382677 -0.923882
vn -0.000000 0.382677 -0.923882
vn -0.000000 0.031764 -0.999495
vn -0.000000 0.923876 -0.382692
vn -0.021260 0.999552 -0.021049
vn 0.015990 0.999645 -0.021334
vn -0.000000 0.923876 -0.382692
vn -0.021546 0.999643 0.015800
vn 0.000757 0.999958 0.009166
vn 0.003362 0.999989 0.003347
vn 0.009244 0.999957 0.000752
vn -0.000000 0.000000 -1.000000
vn -0.000000 0.000000 -1.000000
vn -1.000000 0.000000 -0.000000
vn -1.000000 0.000000 -0.000000
vn -0.999495 0.031767 -0.000000
vn -0.999495 0.031768 -0.000000
vn 0.000000 0.000000 1.000000
vn 0.085191 0.000000 0.996365
vn 0.085066 0.039199 0.995604
vn 0.000000 0.031840 0.999493
vn 0.384038 0.000000 0.923318
vn 0.383781 0.036528 0.922701
vn 0.924438 0.000000 0.381334
vn 0.996464 0.000000 0.084019
vn 0.995703 0.039206 0.083896
vn 0.923820 0.036532 0.381079
vn 1.000000 0.000000 0.000000
vn 0.999493 0.031843 0.000000
vn -0.382684 0.923879 0.000000
vn -0.382684 0.923879 0.000000
vn -0.923883 0.382676 -0.000000
vn -0.923883 0.382676 -0.000000
vn 0.000000 0.923877 0.382691
vn 0.031130 0.925612 0.377192
vn 0.000000 0.382696 0.923874
vn 0.077965 0.387026 0.918767
vn 0.253277 0.933948 0.252175
vn 0.354801 0.382686 0.853034
vn 0.377309 0.925578 0.030705
vn 0.854069 0.382681 0.352308
vn 0.918897 0.386930 0.076896
vn 0.923880 0.382683 0.000000
vn 0.382689 0.923877 0.000000
s 1
g Botón4 Simon_Dice Original_
usemtl initialShadingGroup
f 9/28/1 8/29/2 11/30/3 10/31/4
s 2
f 8/16/5 7/17/6 12/18/7 11/19/8
f 12/18/7 7/17/6 13/21/9 16/22/10 19/23/11 22/24/12
s 1
f 6/32/13 5/33/14 9/28/1 10/31/4
s 3
f 5/1/15 4/2/16 15/3/17 9/4/18
s 4
f 4/34/19 1/35/20 18/36/21 15/37/22
f 1/35/20 2/38/23 21/39/24 18/36/21
s 5
f 2/7/25 3/8/26 24/9/27 21/10/28
f 3/8/26 6/11/29 10/12/30 24/9/27
s 2
f 7/17/6 8/16/31 14/20/32 13/21/9
s 3
f 8/5/33 9/4/18 15/3/17 14/6/34
s 2
f 13/21/9 14/20/35 17/26/36 16/22/10
s 4
f 14/40/37 15/37/22 18/36/21 17/41/38
s 2
f 16/22/10 17/26/36 20/27/39 19/23/11
s 4
f 17/41/38 18/36/21 21/39/24 20/42/40
s 2
f 19/23/11 20/27/39 23/25/41 22/24/12
s 5
f 20/13/42 21/10/28 24/9/27 23/14/43
f 10/12/30 11/15/44 23/14/43 24/9/27
s 2
f 11/19/45 12/18/7 22/24/12 23/25/41
