# This file uses centimeters as units for non-parametric coordinates.

mtllib SD_Boton1.mtl
g default
v -0.684028 1.209135 1.119939
v -0.644892 1.209135 1.214032
v -0.550408 1.209135 1.253007
v -0.684028 1.209135 0.756304
v -0.182651 1.209135 0.756304
v -0.182651 1.209135 1.253007
v -0.206016 1.382949 0.779668
v -0.189495 1.376105 0.763147
v -0.182651 1.359584 0.756304
v -0.182651 1.359584 1.253007
v -0.189495 1.376105 1.246164
v -0.206016 1.382949 1.229643
v -0.660664 1.382949 0.779668
v -0.677185 1.376105 0.763147
v -0.684028 1.359584 0.756304
v -0.660664 1.382949 1.115273
v -0.677185 1.376105 1.118572
v -0.684028 1.359584 1.119939
v -0.627035 1.382949 1.196124
v -0.639662 1.376105 1.208787
v -0.644892 1.359584 1.214032
v -0.545778 1.382949 1.229643
v -0.549052 1.376105 1.246164
v -0.550408 1.359584 1.253007
vt 0.530154 0.381060
vt 0.531747 0.381720
vt 0.531747 0.428300
vt 0.530154 0.428960
vt 0.503502 0.428960
vt 0.503502 0.381060
vt 0.502463 0.330385
vt 0.502463 0.295020
vt 0.529341 0.295020
vt 0.529341 0.330385
vt 0.502463 0.285869
vt 0.529341 0.285869
vt 0.530948 0.329720
vt 0.530948 0.295153
vt 0.530948 0.286379
vt 0.730953 0.231688
vt 0.724352 0.238288
vt 0.544592 0.238288
vt 0.537992 0.231688
vt 0.730953 0.426515
vt 0.724352 0.419915
vt 0.590282 0.419915
vt 0.557983 0.406481
vt 0.544592 0.374020
vt 0.537992 0.375327
vt 0.588964 0.426515
vt 0.552924 0.411525
vt 0.530215 0.234641
vt 0.530215 0.282991
vt 0.503564 0.282991
vt 0.503564 0.234641
vt 0.501971 0.235300
vt 0.501971 0.282331
vt 0.503550 0.378044
vt 0.503550 0.368857
vt 0.530424 0.368857
vt 0.530424 0.378044
vt 0.503550 0.333097
vt 0.530424 0.333097
vt 0.532030 0.377536
vt 0.532030 0.368725
vt 0.532030 0.333763
vn 0.999495 0.031765 -0.000000
vn 0.923878 0.382687 -0.000000
vn 0.923878 0.382687 -0.000000
vn 0.999495 0.031765 -0.000000
vn 0.382686 0.923878 -0.000000
vn 0.021049 0.999552 -0.021260
vn 0.021333 0.999645 0.015990
vn 0.382686 0.923878 -0.000000
vn -0.015800 0.999643 -0.021546
vn -0.009166 0.999958 0.000757
vn -0.003347 0.999989 0.003362
vn -0.000752 0.999957 0.009244
vn 1.000000 0.000000 -0.000000
vn 1.000000 0.000000 -0.000000
vn 0.000000 0.000000 -1.000000
vn 0.000000 0.000000 -1.000000
vn 0.000000 0.031769 -0.999495
vn 0.000000 0.031769 -0.999495
vn -1.000000 0.000000 0.000000
vn -0.996365 0.000000 0.085191
vn -0.995604 0.039198 0.085066
vn -0.999493 0.031838 0.000000
vn -0.923318 0.000000 0.384036
vn -0.922702 0.036528 0.383780
vn -0.381333 0.000000 0.924438
vn -0.084019 0.000000 0.996464
vn -0.083896 0.039206 0.995703
vn -0.381079 0.036532 0.923821
vn 0.000000 0.000000 1.000000
vn 0.000000 0.031842 0.999493
vn 0.000000 0.923878 -0.382688
vn 0.000000 0.923878 -0.382688
vn 0.000000 0.382686 -0.923878
vn 0.000000 0.382686 -0.923878
vn -0.382687 0.923878 0.000000
vn -0.377190 0.925613 0.031131
vn -0.923879 0.382685 0.000000
vn -0.918770 0.387017 0.077967
vn -0.252176 0.933947 0.253278
vn -0.853035 0.382683 0.354802
vn -0.030705 0.925579 0.377307
vn -0.352309 0.382684 0.854068
vn -0.076896 0.386928 0.918898
vn 0.000000 0.382680 0.923881
vn 0.000000 0.923879 0.382686
s 1
g Botón1 Simon_Dice Original_
usemtl initialShadingGroup
f 9/1/1 8/2/2 11/3/3 10/4/4
s 2
f 8/16/5 7/17/6 12/18/7 11/19/8
f 12/18/7 7/17/6 13/21/9 16/22/10 19/23/11 22/24/12
s 1
f 6/5/13 5/6/14 9/1/1 10/4/4
s 3
f 5/28/15 4/29/16 15/30/17 9/31/18
s 4
f 4/7/19 1/8/20 18/9/21 15/10/22
f 1/8/20 2/11/23 21/12/24 18/9/21
s 5
f 2/34/25 3/35/26 24/36/27 21/37/28
f 3/35/26 6/38/29 10/39/30 24/36/27
s 2
f 7/17/6 8/16/31 14/20/32 13/21/9
s 3
f 8/32/33 9/31/18 15/30/17 14/33/34
s 2
f 13/21/9 14/20/35 17/26/36 16/22/10
s 4
f 14/13/37 15/10/22 18/9/21 17/14/38
s 2
f 16/22/10 17/26/36 20/27/39 19/23/11
s 4
f 17/14/38 18/9/21 21/12/24 20/15/40
s 2
f 19/23/11 20/27/39 23/25/41 22/24/12
s 5
f 20/40/42 21/37/28 24/36/27 23/41/43
f 10/39/30 11/42/44 23/41/43 24/36/27
s 2
f 11/19/45 12/18/7 22/24/12 23/25/41
