# This file uses centimeters as units for non-parametric coordinates.

mtllib SD_Boton2.mtl
g default
v -0.548623 1.209135 0.215328
v -0.642716 1.209135 0.254464
v -0.681691 1.209135 0.348948
v -0.184988 1.209135 0.215328
v -0.184988 1.209135 0.716704
v -0.681691 1.209135 0.716704
v -0.208352 1.382949 0.693340
v -0.191831 1.376105 0.709861
v -0.184988 1.359584 0.716704
v -0.681691 1.359584 0.716704
v -0.674848 1.376105 0.709861
v -0.658327 1.382949 0.693340
v -0.208352 1.382949 0.238692
v -0.191831 1.376105 0.222171
v -0.184988 1.359584 0.215328
v -0.543958 1.382949 0.238692
v -0.547256 1.376105 0.222171
v -0.548623 1.359584 0.215328
v -0.624808 1.382949 0.272320
v -0.637471 1.376105 0.259694
v -0.642716 1.359584 0.254464
v -0.658327 1.382949 0.353577
v -0.674848 1.376105 0.350304
v -0.681691 1.359584 0.348948
vt 0.952720 0.281734
vt 0.952720 0.232740
vt 0.979726 0.232740
vt 0.979726 0.281734
vt 0.981340 0.281065
vt 0.981340 0.233409
vt 0.953066 0.428086
vt 0.953066 0.418853
vt 0.980072 0.418853
vt 0.980072 0.428086
vt 0.953066 0.382917
vt 0.980072 0.382917
vt 0.981687 0.427575
vt 0.981687 0.418721
vt 0.981687 0.383585
vt 0.745908 0.231449
vt 0.752583 0.238124
vt 0.752583 0.419926
vt 0.745908 0.426601
vt 0.942948 0.231449
vt 0.936273 0.238124
vt 0.936273 0.373718
vt 0.922686 0.406384
vt 0.889856 0.419926
vt 0.891179 0.426601
vt 0.942948 0.375051
vt 0.927788 0.411500
vt 0.980243 0.332937
vt 0.981857 0.333605
vt 0.981857 0.380805
vt 0.980243 0.381474
vt 0.953237 0.381474
vt 0.953237 0.332937
vt 0.981340 0.285214
vt 0.981340 0.320748
vt 0.954334 0.320748
vt 0.954334 0.285214
vt 0.981340 0.329943
vt 0.954334 0.329943
vt 0.952720 0.285883
vt 0.952720 0.320615
vt 0.952720 0.329430
vn 0.000000 0.031764 0.999495
vn 0.000000 0.382680 0.923881
vn 0.000000 0.382680 0.923881
vn 0.000000 0.031764 0.999495
vn 0.000000 0.923880 0.382682
vn 0.021260 0.999552 0.021049
vn -0.015990 0.999645 0.021333
vn 0.000000 0.923880 0.382682
vn 0.021546 0.999643 -0.015800
vn -0.000757 0.999958 -0.009166
vn -0.003362 0.999989 -0.003347
vn -0.009244 0.999957 -0.000752
vn 0.000000 0.000000 1.000000
vn 0.000000 0.000000 1.000000
vn 1.000000 0.000000 0.000000
vn 1.000000 0.000000 0.000000
vn 0.999495 0.031769 0.000000
vn 0.999495 0.031769 0.000000
vn -0.000000 0.000000 -1.000000
vn -0.085191 0.000000 -0.996365
vn -0.085066 0.039199 -0.995604
vn -0.000000 0.031840 -0.999493
vn -0.384037 0.000000 -0.923318
vn -0.383780 0.036528 -0.922702
vn -0.924438 0.000000 -0.381333
vn -0.996464 0.000000 -0.084019
vn -0.995703 0.039207 -0.083896
vn -0.923821 0.036532 -0.381079
vn -1.000000 0.000000 -0.000000
vn -0.999493 0.031843 -0.000000
vn 0.382687 0.923878 0.000000
vn 0.382686 0.923878 0.000000
vn 0.923877 0.382690 0.000000
vn 0.923877 0.382690 0.000000
vn 0.000000 0.923876 -0.382692
vn -0.031131 0.925611 -0.377193
vn 0.000000 0.382697 -0.923874
vn -0.077966 0.387027 -0.918766
vn -0.253276 0.933948 -0.252176
vn -0.354801 0.382686 -0.853034
vn -0.377308 0.925579 -0.030704
vn -0.854069 0.382685 -0.352306
vn -0.918896 0.386932 -0.076895
vn -0.923879 0.382685 0.000000
vn -0.382688 0.923878 0.000000
s 1
g Botón2 Simon_Dice Original_
usemtl initialShadingGroup
f 9/28/1 8/29/2 11/30/3 10/31/4
s 2
f 8/16/5 7/17/6 12/18/7 11/19/8
f 12/18/7 7/17/6 13/21/9 16/22/10 19/23/11 22/24/12
s 1
f 6/32/13 5/33/14 9/28/1 10/31/4
s 3
f 5/1/15 4/2/16 15/3/17 9/4/18
s 4
f 4/34/19 1/35/20 18/36/21 15/37/22
f 1/35/20 2/38/23 21/39/24 18/36/21
s 5
f 2/7/25 3/8/26 24/9/27 21/10/28
f 3/8/26 6/11/29 10/12/30 24/9/27
s 2
f 7/17/6 8/16/31 14/20/32 13/21/9
s 3
f 8/5/33 9/4/18 15/3/17 14/6/34
s 2
f 13/21/9 14/20/35 17/26/36 16/22/10
s 4
f 14/40/37 15/37/22 18/36/21 17/41/38
s 2
f 16/22/10 17/26/36 20/27/39 19/23/11
s 4
f 17/41/38 18/36/21 21/39/24 20/42/40
s 2
f 19/23/11 20/27/39 23/25/41 22/24/12
s 5
f 20/13/42 21/10/28 24/9/27 23/14/43
f 10/12/30 11/15/44 23/14/43 24/9/27
s 2
f 11/19/45 12/18/7 22/24/12 23/25/41
