# This file uses centimeters as units for non-parametric coordinates.

mtllib SD_Base.mtl
g default
v -0.743118 1.154576 1.162534
v -0.593472 1.154576 1.311562
v -0.699288 1.154576 1.267913
v -0.743118 1.236956 1.162534
v -0.699288 1.236956 1.267913
v -0.593472 1.236956 1.311562
v 0.413835 1.154576 1.162534
v 0.370004 1.154576 1.267913
v 0.264189 1.154576 1.311562
v 0.413835 1.236956 1.162534
v 0.264189 1.236956 1.311562
v 0.370004 1.236956 1.267913
v -0.699288 1.236956 0.208726
v -0.743118 1.236956 0.314105
v -0.593472 1.236956 0.165077
v -0.743118 1.154576 0.314105
v -0.699288 1.154576 0.208726
v -0.593472 1.154576 0.165077
v 0.370004 1.236956 0.208726
v 0.264189 1.236956 0.165077
v 0.413835 1.236956 0.314105
v 0.413835 1.154576 0.314105
v 0.264189 1.154576 0.165077
v 0.370004 1.154576 0.208726
v 0.222384 1.236956 0.220960
v 0.317884 1.236956 0.260354
v -0.551667 1.236956 0.220960
v -0.647167 1.236956 0.260354
v -0.686725 1.236956 0.355460
v -0.686725 1.236956 1.121179
v -0.647167 1.236956 1.216285
v -0.551667 1.236956 1.255679
v 0.222384 1.236956 1.255679
v 0.317884 1.236956 1.216285
v 0.357441 1.236956 1.121179
v 0.357441 1.236956 0.355460
v -0.686725 1.236956 0.723007
v -0.686725 1.236956 0.753632
v -0.179955 1.236956 0.723007
v -0.179955 1.236956 0.753632
v -0.149329 1.236956 0.753632
v -0.149329 1.236956 0.723007
v 0.357441 1.236956 0.753632
v 0.357441 1.236956 0.723007
v -0.179955 1.236956 1.255679
v -0.149329 1.236956 1.255679
v -0.149329 1.236956 0.220960
v -0.179955 1.236956 0.220960
vt 0.407336 0.000000
vt 0.157497 0.000000
vt 0.342503 0.250000
vt 0.657497 0.000000
vt 0.842503 0.250000
vt 0.342503 0.000000
vt 0.407336 0.250000
vt 0.592664 0.000000
vt 0.657497 0.250000
vt 0.157497 0.250000
vt 0.407336 0.750000
vt 0.592664 0.500000
vt 0.842503 0.000000
vt 0.375000 0.467503
vt 0.625000 0.282497
vt 0.625000 0.782497
vt 0.625000 0.967503
vt 0.592664 1.000000
vt 0.407336 1.000000
vt 0.375000 0.967503
vt 0.375000 0.782497
vt 0.592664 0.750000
vt 0.375000 1.000000
vt 0.375000 0.000000
vt 0.375000 0.250000
vt 0.625000 1.000000
vt 0.625000 0.000000
vt 0.625000 0.250000
vt 0.375000 0.500000
vt 0.125000 0.250000
vt 0.375000 0.750000
vt 0.125000 0.000000
vt 0.625000 0.500000
vt 0.875000 0.250000
vt 0.875000 0.000000
vt 0.625000 0.750000
vt 0.625000 0.500000
vt 0.375000 0.282497
vt 0.625000 0.467503
vt 0.625000 0.467503
vt 0.592664 0.250000
vt 0.592664 0.250000
vt 0.407336 0.500000
vt 0.375000 0.371300
vt 0.496334 0.500000
vt 0.496041 0.371006
vt 0.503666 0.250000
vt 0.503959 0.371006
vt 0.625000 0.378700
vt 0.496334 0.378700
vt 0.407336 0.500000
vt 0.375000 0.500000
vt 0.375000 0.467503
vt 0.375000 0.378700
vt 0.496334 0.250000
vt 0.375000 0.282497
vt 0.375000 0.250000
vt 0.407336 0.250000
vt 0.625000 0.371300
vt 0.625000 0.250000
vt 0.625000 0.282497
vt 0.592664 0.500000
vt 0.503666 0.500000
vt 0.503959 0.378994
vn -0.045258 0.000000 0.998975
vn -0.045258 0.000000 0.998975
vn 0.045258 0.000000 0.998975
vn 0.045258 0.000000 0.998975
vn -0.045258 0.000000 -0.998975
vn -0.045258 0.000000 -0.998975
vn 0.045258 0.000000 -0.998975
vn 0.045258 0.000000 -0.998975
vn 0.998946 0.000000 0.045904
vn 0.998946 0.000000 0.045904
vn 0.998946 0.000000 -0.045904
vn 0.998946 0.000000 -0.045904
vn -0.998946 0.000000 -0.045905
vn -0.998946 0.000000 -0.045905
vn -0.998946 0.000000 0.045905
vn -0.998946 0.000000 0.045905
vn -0.923318 0.000000 0.384037
vn -0.923318 0.000000 0.384037
vn -0.381335 0.000000 0.924437
vn -0.381335 0.000000 0.924437
vn 0.381334 0.000000 0.924437
vn 0.381334 0.000000 0.924437
vn 0.923318 0.000000 0.384036
vn 0.923318 0.000000 0.384036
vn -0.923318 0.000000 -0.384037
vn -0.923318 0.000000 -0.384037
vn -0.381335 0.000000 -0.924437
vn -0.381335 0.000000 -0.924437
vn 0.381334 0.000000 -0.924437
vn 0.381334 0.000000 -0.924437
vn 0.923318 0.000000 -0.384036
vn 0.923318 0.000000 -0.384036
vn 0.000000 -1.000000 -0.000000
vn 0.000000 -1.000000 -0.000000
vn 0.000000 -1.000000 -0.000000
vn 0.000000 -1.000000 -0.000000
vn 0.000000 -1.000000 -0.000000
vn 0.000000 -1.000000 -0.000000
vn 0.000000 -1.000000 -0.000000
vn 0.000000 -1.000000 -0.000000
vn 0.000000 -1.000000 -0.000000
vn 0.000000 -1.000000 -0.000000
vn 0.000000 -1.000000 -0.000000
vn 0.000000 -1.000000 -0.000000
vn 0.000000 1.000000 -0.000001
vn 0.000000 1.000000 -0.000001
vn 0.000000 1.000000 -0.000001
vn 0.000000 1.000000 -0.000001
vn 0.000000 1.000000 0.000000
vn 0.000000 1.000000 0.000000
vn 0.000000 1.000000 0.000000
vn 0.000000 1.000000 0.000000
vn 0.000000 1.000000 0.000000
vn 0.000000 1.000000 0.000000
vn 0.000000 1.000000 -0.000001
vn 0.000000 1.000000 -0.000001
vn 0.000000 1.000000 -0.000001
vn 0.000000 1.000000 -0.000001
vn 0.000000 1.000000 0.000000
vn 0.000000 1.000000 0.000000
vn 0.000000 1.000000 0.000000
vn 0.000000 1.000000 0.000000
vn 0.000000 1.000000 0.000000
vn 0.000000 1.000000 0.000000
vn 0.000000 1.000000 0.000000
vn 0.000000 1.000000 0.000000
vn 0.000000 1.000000 0.000000
vn 0.000000 1.000000 0.000000
vn 0.000000 1.000000 0.000000
vn 0.000000 1.000000 0.000000
vn 0.000000 1.000000 0.000000
vn 0.000000 1.000000 0.000000
vn 0.000000 1.000000 0.000000
vn 0.000000 1.000000 0.000000
vn 0.000000 1.000000 0.000000
vn 0.000000 1.000000 0.000000
vn 0.000000 1.000000 -0.000001
vn 0.000000 1.000000 -0.000001
vn 0.000000 1.000000 -0.000001
vn 0.000000 1.000000 -0.000001
vn 0.000000 1.000000 -0.000001
vn 0.000000 1.000000 -0.000001
vn 0.000000 1.000000 0.000001
vn 0.000000 1.000000 0.000001
vn 0.000000 1.000000 0.000001
vn 0.000000 1.000000 0.000001
vn 0.000000 1.000000 0.000000
vn 0.000000 1.000000 0.000000
vn 0.000000 1.000000 0.000000
vn 0.000000 1.000000 0.000000
vn 0.000000 1.000000 0.000000
vn 0.000000 1.000000 0.000000
vn 0.000000 1.000000 0.000000
vn 0.000000 1.000000 0.000000
vn 0.000000 1.000000 0.000000
vn 0.000000 1.000000 0.000000
vn 0.000000 1.000000 0.000000
vn 0.000000 1.000000 0.000000
vn 0.000000 1.000000 0.000000
vn 0.000000 1.000000 0.000000
vn 0.000000 1.000000 -0.000000
vn 0.000000 1.000000 0.000000
vn 0.000000 1.000000 0.000000
vn 0.000000 1.000000 -0.000000
s 1
g Simon_Dice Simon_Dice Original_
usemtl phong1SG
f 6/7/1 2/1/2 9/8/3 11/41/4
s 2
f 18/11/5 15/43/6 20/12/7 23/22/8
s 3
f 10/9/9 7/4/10 22/13/11 21/5/12
s 4
f 14/10/13 16/2/14 1/6/15 4/3/16
f 1/6/15 3/24/17 5/25/18 4/3/16
s 1
f 3/24/19 2/1/2 6/7/1 5/25/20
f 9/8/3 8/27/21 12/28/22 11/41/4
s 3
f 8/27/23 7/4/10 10/9/9 12/28/24
s 4
f 14/10/13 13/30/25 17/32/26 16/2/14
s 2
f 13/29/27 15/43/6 18/11/5 17/31/28
f 20/12/7 19/33/29 24/36/30 23/22/8
s 3
f 19/34/31 21/5/12 22/13/11 24/35/32
s off
f 22/16/33 7/17/34 8/26/35 9/18/36 2/19/37 3/23/38 1/20/39 16/21/40 17/31/41 18/11/42 23/22/43 24/36/44
f 19/33/45 20/12/46 25/62/47 26/37/48
s 5
f 20/12/49 15/43/50 27/51/51 48/45/52 47/63/53 25/62/54
s off
f 15/43/55 13/29/56 28/52/57 27/51/58
f 13/29/59 14/14/60 29/53/61 28/52/62
s 5
f 14/14/63 4/38/64 30/56/65 38/44/66 37/54/67 29/53/68
s off
f 4/38/69 5/25/70 31/57/71 30/56/72
f 5/25/73 6/7/74 32/58/75 31/57/76
s 5
f 6/7/77 11/41/78 33/42/79 46/47/80 45/55/81 32/58/82
s off
f 11/41/83 12/28/84 34/60/85 33/42/86
f 12/28/87 10/15/88 35/61/89 34/60/90
s 5
f 10/15/91 21/39/92 36/40/93 44/49/94 43/59/95 35/61/96
s off
f 21/39/97 19/33/98 26/37/99 36/40/100
s 5
f 37/54/67 38/44/66 40/46/101 39/50/102
f 39/50/102 42/64/103 47/63/53 48/45/52
f 41/48/104 40/46/101 45/55/81 46/47/80
f 42/64/103 41/48/104 43/59/95 44/49/94
f 39/50/102 40/46/101 41/48/104 42/64/103
