# This file uses centimeters as units for non-parametric coordinates.

mtllib Slider.mtl
g default
v 1.429675 1.307238 1.251322
v 1.633558 1.307238 1.251322
v 1.445550 1.379102 1.252921
v 1.617682 1.379102 1.252921
v 1.445550 1.379102 1.148850
v 1.617682 1.379102 1.148850
v 1.429675 1.307238 1.150449
v 1.633558 1.307238 1.150449
v 1.531616 1.307238 1.251322
v 1.531616 1.358377 1.252921
v 1.531616 1.358377 1.148850
v 1.531616 1.307238 1.150449
v 1.582587 1.307238 1.251322
v 1.574649 1.366149 1.252921
v 1.574649 1.366149 1.148850
v 1.582587 1.307238 1.150449
v 1.480645 1.307238 1.251322
v 1.488583 1.366149 1.252921
v 1.488583 1.366149 1.148850
v 1.480645 1.307238 1.150449
v 1.424855 1.325689 1.256751
v 1.424855 1.325689 1.145020
v 1.478236 1.325689 1.145020
v 1.531616 1.325689 1.145020
v 1.584997 1.325689 1.145020
v 1.638377 1.325689 1.145020
v 1.638377 1.325689 1.256751
v 1.584997 1.325689 1.256751
v 1.531616 1.325689 1.256751
v 1.478236 1.325689 1.256751
v 1.451672 1.377259 1.245775
v 1.482462 1.367991 1.245775
v 1.482462 1.367991 1.155996
v 1.451672 1.377259 1.155996
v 1.580771 1.367991 1.245775
v 1.580771 1.367991 1.155996
v 1.611560 1.377259 1.245775
v 1.611560 1.377259 1.155996
v 1.456115 1.380929 1.242202
v 1.480783 1.373504 1.242202
v 1.480783 1.373504 1.159569
v 1.456115 1.380929 1.159569
v 1.582449 1.373504 1.242202
v 1.582449 1.373504 1.159569
v 1.607118 1.380929 1.242202
v 1.607118 1.380929 1.159569
vt 0.375000 0.000000
vt 0.437500 0.000000
vt 0.437500 0.075000
vt 0.375000 0.075000
vt 0.375000 0.250000
vt 0.437500 0.250000
vt 0.437500 0.500000
vt 0.375000 0.500000
vt 0.375000 0.675000
vt 0.437500 0.675000
vt 0.437500 0.750000
vt 0.375000 0.750000
vt 0.437500 1.000000
vt 0.375000 1.000000
vt 0.625000 0.000000
vt 0.875000 0.000000
vt 0.875000 0.075000
vt 0.625000 0.075000
vt 0.125000 0.000000
vt 0.125000 0.075000
vt 0.562500 0.075000
vt 0.500000 0.075000
vt 0.500000 0.000000
vt 0.562500 0.000000
vt 0.500000 0.500000
vt 0.500000 0.250000
vt 0.562500 0.250000
vt 0.562500 0.500000
vt 0.500000 0.750000
vt 0.500000 0.675000
vt 0.562500 0.675000
vt 0.562500 0.750000
vt 0.500000 1.000000
vt 0.562500 1.000000
vt 0.562500 0.500000
vt 0.562500 0.250000
vt 0.625000 0.250000
vt 0.625000 0.500000
vt 0.625000 0.675000
vt 0.625000 0.750000
vt 0.625000 1.000000
vt 0.437500 0.500000
vt 0.437500 0.250000
vt 0.375000 0.250000
vt 0.125000 0.250000
vt 0.375000 0.500000
vt 0.625000 0.500000
vt 0.875000 0.250000
vt 0.625000 0.250000
vt 0.437500 0.250000
vt 0.375000 0.250000
vt 0.437500 0.500000
vt 0.375000 0.500000
vt 0.562500 0.250000
vt 0.562500 0.500000
vt 0.625000 0.250000
vt 0.625000 0.500000
vn 0.000000 -0.282313 0.959322
vn 0.000000 -0.282314 0.959322
vn 0.006691 -0.031997 0.999466
vn 0.007238 -0.037266 0.999279
vn 0.288231 0.957561 0.000000
vn 0.288231 0.957561 0.000000
vn 0.288231 0.957561 0.000000
vn 0.288231 0.957561 0.000000
vn 0.007239 -0.037266 -0.999279
vn 0.006691 -0.031997 -0.999466
vn 0.000000 -0.282308 -0.959324
vn 0.000000 -0.282308 -0.959324
vn 0.000000 -1.000000 0.000000
vn 0.000000 -1.000000 0.000000
vn 0.000000 -1.000000 0.000000
vn 0.000000 -1.000000 0.000000
vn 0.967535 -0.252738 0.000000
vn 0.967535 -0.252738 0.000000
vn 0.972254 0.233926 0.000000
vn 0.972254 0.233927 0.000000
vn -0.967533 -0.252745 0.000000
vn -0.967533 -0.252745 0.000000
vn -0.972255 0.233925 0.000000
vn -0.972255 0.233924 0.000000
vn -0.006690 -0.031997 0.999466
vn 0.000000 -0.035909 0.999355
vn 0.000000 -0.282315 0.959322
vn 0.000000 -0.282314 0.959322
vn 0.000000 1.000000 0.000000
vn 0.000000 1.000000 0.000000
vn -0.187471 0.982270 0.000000
vn -0.187471 0.982270 0.000000
vn 0.000000 -0.282309 -0.959323
vn -0.000000 -0.035909 -0.999355
vn -0.006691 -0.031997 -0.999466
vn 0.000000 -0.282308 -0.959324
vn 0.000000 -1.000000 0.000000
vn 0.000000 -1.000000 0.000000
vn 0.000000 -1.000000 0.000000
vn 0.000000 -1.000000 0.000000
vn -0.007237 -0.037266 0.999279
vn 0.000000 -0.282313 0.959322
vn -0.288232 0.957561 0.000000
vn -0.288232 0.957561 0.000000
vn -0.288232 0.957561 0.000000
vn -0.288232 0.957561 0.000000
vn -0.007239 -0.037266 -0.999279
vn 0.000000 -0.282307 -0.959324
vn 0.000000 -1.000000 0.000000
vn 0.000000 -1.000000 0.000000
vn 0.187471 0.982270 -0.000000
vn 0.187471 0.982270 0.000000
vn -0.932454 0.361288 0.000000
vn -0.932454 0.361288 0.000000
vn 0.010465 0.077883 -0.996908
vn 0.009524 0.088809 -0.996003
vn -0.000000 0.102983 -0.994683
vn -0.009524 0.088809 -0.996003
vn -0.010465 0.077884 -0.996908
vn 0.932454 0.361288 0.000000
vn 0.932454 0.361288 0.000000
vn -0.009523 0.088812 0.996003
vn -0.010462 0.077886 0.996907
vn 0.000000 0.102986 0.994683
vn 0.009524 0.088812 0.996003
vn 0.010463 0.077886 0.996907
vn 0.288230 0.957561 0.000000
vn 0.288223 0.957563 0.000000
vn 0.288230 0.957561 0.000000
vn 0.288224 0.957563 -0.000001
vn 0.288230 0.957561 -0.000001
vn 0.288231 0.957561 -0.000001
vn -0.288216 0.957566 0.000000
vn -0.288215 0.957566 0.000001
vn -0.288237 0.957559 0.000000
vn -0.288238 0.957559 0.000000
vn -0.288237 0.957559 0.000001
vn -0.288237 0.957559 0.000001
vn 0.172228 0.572187 0.801835
vn 0.172228 0.572187 0.801835
vn 0.172228 0.572187 0.801835
vn 0.172228 0.572187 0.801835
vn 0.956613 0.291361 0.000000
vn 0.956613 0.291361 0.000000
vn 0.956613 0.291361 0.000000
vn 0.956613 0.291361 0.000000
vn 0.172227 0.572174 -0.801845
vn 0.172227 0.572174 -0.801845
vn 0.172227 0.572174 -0.801845
vn 0.172227 0.572174 -0.801845
vn -0.636876 0.770966 0.000000
vn -0.636876 0.770966 0.000000
vn -0.636876 0.770966 0.000000
vn -0.636876 0.770966 0.000000
vn -0.956622 0.291333 0.000000
vn -0.956622 0.291333 0.000000
vn -0.956622 0.291333 0.000000
vn -0.956622 0.291333 0.000000
vn -0.172232 0.572186 0.801835
vn -0.172232 0.572186 0.801835
vn -0.172232 0.572186 0.801835
vn -0.172232 0.572186 0.801835
vn 0.636869 0.770972 0.000000
vn 0.636869 0.770972 0.000000
vn 0.636869 0.770972 0.000000
vn 0.636869 0.770972 0.000000
vn -0.172224 0.572164 -0.801852
vn -0.172224 0.572164 -0.801852
vn -0.172224 0.572164 -0.801852
vn -0.172224 0.572164 -0.801852
s 1
g polySurface4 Slider1 Slider Original_
usemtl lambert11SG
f 1/1/1 17/2/2 30/3/3 21/4/4
s off
f 39/5/5 40/6/6 41/7/7 42/8/8
s 2
f 22/9/9 23/10/10 20/11/11 7/12/12
s 3
f 7/12/13 20/11/14 17/13/15 1/14/16
s 4
f 2/15/17 8/16/18 26/17/19 27/18/20
s 5
f 7/19/21 1/1/22 21/4/23 22/20/24
s 1
f 28/21/25 29/22/26 9/23/27 13/24/28
s 7
f 11/25/29 10/26/30 14/27/31 15/28/32
s 2
f 12/29/33 24/30/34 25/31/35 16/32/36
s 3
f 9/33/37 12/29/38 16/32/39 13/34/40
s 1
f 27/18/41 28/21/25 13/24/28 2/15/42
s off
f 44/35/43 43/36/44 45/37/45 46/38/46
s 2
f 16/32/36 25/31/35 26/39/47 8/40/48
s 3
f 13/34/40 16/32/39 8/40/49 2/41/50
s 1
f 29/22/26 30/3/3 17/2/2 9/23/27
s 7
f 19/42/51 18/43/52 10/26/30 11/25/29
s 2
f 20/11/11 23/10/10 24/30/34 12/29/33
s 3
f 17/13/15 20/11/14 12/29/38 9/33/37
s 5
f 22/20/24 21/4/23 3/44/53 5/45/54
s 2
f 5/46/55 19/42/56 23/10/10 22/9/9
f 24/30/34 23/10/10 19/42/56 11/25/57
f 25/31/35 24/30/34 11/25/57 15/28/58
f 26/39/47 25/31/35 15/28/58 6/47/59
s 4
f 27/18/20 26/17/19 6/48/60 4/49/61
s 1
f 14/27/62 28/21/25 27/18/41 4/49/63
f 10/26/64 29/22/26 28/21/25 14/27/62
f 18/43/65 30/3/3 29/22/26 10/26/64
f 21/4/4 30/3/3 18/43/65 3/44/66
s 7
f 3/44/67 18/43/52 32/50/68 31/51/69
f 18/43/52 19/42/51 33/52/70 32/50/68
f 19/42/51 5/46/71 34/53/72 33/52/70
f 5/46/71 3/44/67 31/51/69 34/53/72
f 15/28/32 14/27/31 35/54/73 36/55/74
f 14/27/31 4/49/75 37/56/76 35/54/73
f 4/49/75 6/47/77 38/57/78 37/56/76
f 6/47/77 15/28/32 36/55/74 38/57/78
s off
f 31/51/79 32/50/80 40/6/81 39/5/82
f 32/50/83 33/52/84 41/7/85 40/6/86
f 33/52/87 34/53/88 42/8/89 41/7/90
f 34/53/91 31/51/92 39/5/93 42/8/94
f 36/55/95 35/54/96 43/36/97 44/35/98
f 35/54/99 37/56/100 45/37/101 43/36/102
f 37/56/103 38/57/104 46/38/105 45/37/106
f 38/57/107 36/55/108 44/35/109 46/38/110
g default
v 1.540424 1.201157 1.192198
v 1.523698 1.201157 1.192198
v 1.523698 1.201157 1.210895
v 1.540424 1.201157 1.210895
v 1.540424 1.349172 1.192198
v 1.523698 1.349172 1.192198
v 1.523698 1.349172 1.210895
v 1.540424 1.349172 1.210895
v 1.532061 1.201157 1.201547
v 1.532061 1.349172 1.201547
vt 0.375000 0.312500
vt 0.437500 0.312500
vt 0.437500 0.687500
vt 0.375000 0.687500
vt 0.500000 0.312500
vt 0.500000 0.687500
vt 0.562500 0.312500
vt 0.562500 0.687500
vt 0.625000 0.312500
vt 0.625000 0.687500
vt 0.343750 0.156250
vt 0.500000 0.000000
vt 0.500000 0.156250
vt 0.500000 0.312500
vt 0.656250 0.156250
vt 0.500000 1.000000
vt 0.343750 0.843750
vt 0.500000 0.843750
vt 0.500000 0.687500
vt 0.656250 0.843750
vn 0.000000 0.000000 -1.000000
vn 0.000000 0.000000 -1.000000
vn 0.000000 0.000000 -1.000000
vn 0.000000 0.000000 -1.000000
vn -1.000000 0.000000 0.000000
vn -1.000000 0.000000 0.000000
vn -1.000000 0.000000 0.000000
vn -1.000000 0.000000 0.000000
vn 0.000000 0.000000 1.000000
vn 0.000000 0.000000 1.000000
vn 0.000000 0.000000 1.000000
vn 0.000000 0.000000 1.000000
vn 1.000000 0.000000 0.000000
vn 1.000000 0.000000 0.000000
vn 1.000000 0.000000 0.000000
vn 1.000000 0.000000 0.000000
vn 0.000000 -1.000000 0.000000
vn 0.000000 -1.000000 0.000000
vn 0.000000 -1.000000 0.000000
vn 0.000000 -1.000000 0.000000
vn 0.000000 -1.000000 0.000000
vn 0.000000 1.000000 0.000000
vn 0.000000 1.000000 0.000000
vn 0.000000 1.000000 0.000000
vn 0.000000 1.000000 0.000000
vn 0.000000 1.000000 0.000000
s off
g Slider1 Slider Original_ polySurface5
usemtl phong1SG
f 47/58/111 48/59/112 52/60/113 51/61/114
f 48/59/115 49/62/116 53/63/117 52/60/118
f 49/62/119 50/64/120 54/65/121 53/63/122
f 50/64/123 47/66/124 51/67/125 54/65/126
s 1
f 48/68/127 47/69/128 55/70/129
f 49/71/130 48/68/127 55/70/129
f 50/72/131 49/71/130 55/70/129
f 47/69/128 50/72/131 55/70/129
s 2
f 51/73/132 52/74/133 56/75/134
f 52/74/133 53/76/135 56/75/134
f 53/76/135 54/77/136 56/75/134
f 54/77/136 51/73/132 56/75/134
